<?xml version="1.0" standalone="no"?>
<!DOCTYPE svg PUBLIC "-//W3C//DTD SVG 1.1//EN" "http://www.w3.org/Graphics/SVG/1.1/DTD/svg11.dtd" >
<svg>
<metadata>
Created by FontForge 20120731 at Tue Nov 29 08:30:40 2016
 By www-data
Copyright (c) 2012 by Superstorefont. All rights reserved.
</metadata>
<defs>
<font id="Quan" horiz-adv-x="185" >
  <font-face 
    font-family="Quan"
    font-weight="400"
    font-stretch="normal"
    units-per-em="1000"
    panose-1="2 0 0 0 0 0 0 0 0 0"
    ascent="750"
    descent="-250"
    x-height="400"
    cap-height="500"
    bbox="-81 -195 814 717"
    underline-thickness="35"
    underline-position="-74"
    unicode-range="U+0020-FB02"
  />
<missing-glyph horiz-adv-x="569" 
d="M539 0h-509v628h509v-628zM76 35v11h-8q8 -2 8 -11zM493 590v-8h8q-8 0 -8 8zM501 46h-8v-9q0 7 8 9zM68 582h8v8q-2 -8 -8 -8zM76 582v-536h417v536h-417z" />
    <glyph glyph-name="fi" unicode="fi" horiz-adv-x="456" 
d="M195 492q-31 0 -37.5 -15t-6.5 -67v-10h112q3 -20 3 -30q0 -17 -5 -28h-110v-339q-21 -3 -32 -3q-12 0 -33 3v339h-66q-5 11 -5 28q0 10 3 30h68v10q0 82 21.5 111t79.5 29q49 0 84 -11q0 -28 -14 -52q-32 5 -62 5zM363 400q12 0 33 -3v-394q-21 -3 -32 -3q-12 0 -33 3
v394q21 3 32 3zM363 542q12 0 33 -3v-78q-21 -3 -32 -3q-12 0 -33 3v78q21 3 32 3z" />
    <glyph glyph-name="fl" unicode="fl" horiz-adv-x="456" 
d="M195 492q-31 0 -37.5 -15t-6.5 -67v-10h112q3 -20 3 -30q0 -17 -5 -28h-110v-339q-21 -3 -32 -3q-12 0 -33 3v339h-66q-5 11 -5 28q0 10 3 30h68v10q0 82 21.5 111t79.5 29q49 0 84 -11q0 -28 -14 -52q-32 5 -62 5zM363 536q12 0 33 -3v-530q-21 -3 -32 -3q-12 0 -33 3
v530q21 3 32 3z" />
    <glyph glyph-name=".notdef" horiz-adv-x="569" 
d="M539 0h-509v628h509v-628zM76 35v11h-8q8 -2 8 -11zM493 590v-8h8q-8 0 -8 8zM501 46h-8v-9q0 7 8 9zM68 582h8v8q-2 -8 -8 -8zM76 582v-536h417v536h-417z" />
    <glyph glyph-name=".null" horiz-adv-x="0" 
 />
    <glyph glyph-name="nonmarkingreturn" horiz-adv-x="283" 
 />
    <glyph glyph-name="space" unicode=" " 
 />
    <glyph glyph-name="exclam" unicode="!" 
d="M92 84q12 0 33 -3v-78q-21 -3 -32 -3q-12 0 -33 3v78q21 3 32 3zM92 131q-5 0 -26 3q-1 173 -6 363q21 3 32 3t32 -3q-5 -190 -6 -363q-21 -3 -26 -3z" />
    <glyph glyph-name="quotedbl" unicode="&#x22;" horiz-adv-x="275" 
d="M92 536q12 0 33 -3l-11 -141q-4 -1 -7 -1.5t-4.5 -0.5t-3 -0.5t-3 -0.5h-3.5t-23 3l-10 141q21 3 32 3zM182 536q12 0 33 -3l-11 -141q-4 -1 -7 -1.5t-4.5 -0.5t-3 -0.5t-3 -0.5h-3.5t-23 3l-10 141q21 3 32 3z" />
    <glyph glyph-name="numbersign" unicode="#" horiz-adv-x="608" 
d="M545 323h-89l-40 -129h88q3 -21 3 -30q0 -7 -3 -28h-105l-40 -130q-11 -6 -32 -6q-23 0 -32 3l40 133h-150l-40 -130q-11 -6 -32 -6q-23 0 -32 3l40 133h-58q-3 21 -3 27q0 10 3 31h76l39 129h-74q-3 21 -3 27q0 10 3 31h91l35 116q9 3 32 3q22 0 32 -6l-35 -113h150
l35 116q9 3 32 3q22 0 32 -6l-35 -113h72q3 -21 3 -30q0 -7 -3 -28zM353 194l39 129h-150l-40 -129h151z" />
    <glyph glyph-name="dollar" unicode="$" horiz-adv-x="496" 
d="M436 143q0 -84 -41.5 -114.5t-111.5 -33.5v-53q-21 -3 -32 -3q-12 0 -33 3v53q-122 9 -158 45q2 32 25 52q61 -33 133 -39v176q-72 22 -113.5 52t-41.5 86q0 127 155 138v53q21 3 32 3q12 0 33 -3v-53q85 -2 135 -20q-1 -25 -15 -54q-39 14 -120 16v-169
q35 -11 57.5 -20.5t47 -25t36.5 -38t12 -51.5zM128 367q0 -25 23 -40.5t67 -29.5v150q-44 -6 -67 -28t-23 -52zM283 53q88 8 88 90q0 41 -88 67v-157z" />
    <glyph glyph-name="percent" unicode="%" horiz-adv-x="581" 
d="M152 3l214 494q9 3 32 3q22 0 32 -6l-214 -488q-10 -6 -32 -6q-23 0 -32 3zM153 266q-93 0 -93 74v86q0 35 27.5 54.5t65.5 19.5t65.5 -19.5t27.5 -54.5v-86q0 -74 -93 -74zM153 456q-43 0 -43 -30v-86q0 -15 8.5 -22t34.5 -7t34.5 7t8.5 22v86q0 30 -43 30zM428 0
q-93 0 -93 74v86q0 35 27.5 54.5t65.5 19.5t65.5 -19.5t27.5 -54.5v-86q0 -74 -93 -74zM428 190q-43 0 -43 -30v-86q0 -15 8.5 -22t34.5 -7t34.5 7t8.5 22v86q0 30 -43 30z" />
    <glyph glyph-name="ampersand" unicode="&#x26;" horiz-adv-x="527" 
d="M467 225q0 -94 -40 -152l38 -36q-8 -13 -18 -21q-5 -4 -25 -16l-35 34q-54 -39 -138 -39q-39 0 -58 1t-49 8t-44.5 20.5t-26 41t-11.5 67.5q0 47 30.5 74t87.5 49q-34 57 -34 110q0 69 25 104t96 35t96 -35t25 -104q0 -48 -32 -78t-90 -56q25 -31 115 -115q23 41 23 108
q21 3 32 3q12 0 33 -3zM209 366q0 -44 24 -89q43 16 65.5 36.5t22.5 52.5q0 26 -1 37t-6 23.5t-16.5 16.5t-32.5 4q-38 0 -47 -17t-9 -64zM248 53q58 0 94 23q-93 85 -131 133q-43 -19 -64.5 -35.5t-21.5 -40.5t5.5 -39t12 -23.5t25.5 -12.5t33 -4.5t47 -0.5z" />
    <glyph glyph-name="quotesingle" unicode="'" 
d="M92 536q12 0 33 -3l-11 -141q-4 -1 -7 -1.5t-4.5 -0.5t-3 -0.5t-3 -0.5h-3.5t-23 3l-10 141q21 3 32 3z" />
    <glyph glyph-name="parenleft" unicode="(" horiz-adv-x="216" 
d="M123 558q12 0 33 -3q-31 -141 -31 -302q0 -175 31 -308q-21 -3 -32 -3q-12 0 -33 3q-31 136 -31 308q0 164 31 302q21 3 32 3z" />
    <glyph glyph-name="parenright" unicode=")" horiz-adv-x="216" 
d="M93 558q11 0 32 -3q31 -138 31 -302q0 -172 -31 -308q-21 -3 -33 -3q-11 0 -32 3q31 133 31 308q0 161 -31 302q21 3 33 3z" />
    <glyph glyph-name="asterisk" unicode="*" horiz-adv-x="374" 
d="M314 413l-105 -12l77 -74q-11 -11 -23 -21q-4 -3 -26 -15l-50 92l-50 -92q-22 12 -26 15q-12 10 -23 21l77 74l-105 12q4 25 5 30q4 14 11 29l97 -44l-16 105q21 3 30 3q10 0 31 -3l-17 -105l97 44q7 -15 11 -29q1 -5 5 -30z" />
    <glyph glyph-name="plus" unicode="+" horiz-adv-x="487" 
d="M427 195q0 -7 -3 -28h-148v-151q-21 -3 -32 -3q-12 0 -33 3v151h-148q-3 21 -3 27q0 10 3 31h148v151q21 3 32 3q12 0 33 -3v-151h148q3 -21 3 -30z" />
    <glyph glyph-name="comma" unicode="," horiz-adv-x="145" 
d="M82 84q12 0 33 -3l-44 -113q-9 -3 -23 -3q-9 0 -18 3l20 113q21 3 32 3z" />
    <glyph glyph-name="hyphen" unicode="-" horiz-adv-x="387" 
d="M324 167h-261q-3 21 -3 27q0 10 3 31h261q3 -21 3 -30q0 -7 -3 -28z" />
    <glyph glyph-name="period" unicode="." 
d="M92 84q12 0 33 -3v-78q-21 -3 -32 -3q-12 0 -33 3v78q21 3 32 3z" />
    <glyph glyph-name="slash" unicode="/" horiz-adv-x="352" 
d="M60 3l168 552q9 3 32 3q22 0 32 -6l-168 -546q-10 -6 -32 -6q-23 0 -32 3z" />
    <glyph glyph-name="zero" unicode="0" horiz-adv-x="490" 
d="M245 505q39 0 68.5 -5t49 -11.5t33 -22t20 -27t10 -35.5t4 -39t0.5 -46v-138q0 -31 -0.5 -46t-4 -39t-10 -35.5t-20 -27t-33 -22t-49 -11.5t-68.5 -5t-68.5 5t-49 11.5t-33 22t-20 27t-10 35.5t-4 39t-0.5 46v138q0 31 0.5 46t4 39t10 35.5t20 27t33 22t49 11.5t68.5 5z
M245 53q30 0 50.5 2.5t34 10.5t20.5 15t10.5 26t4 32.5t0.5 43.5v134q0 30 -0.5 43.5t-4 32.5t-10.5 26t-20.5 15t-34 10.5t-50.5 2.5t-50.5 -2.5t-34 -10.5t-20.5 -15t-10.5 -26t-4 -32.5t-0.5 -43.5v-134q0 -30 0.5 -43.5t4 -32.5t10.5 -26t20.5 -15t34 -10.5t50.5 -2.5z
" />
    <glyph glyph-name="one" unicode="1" horiz-adv-x="298" 
d="M173 497q21 3 32 3q12 0 33 -3v-494q-21 -3 -32 -3q-12 0 -33 3v416q-117 -78 -119 -76q-14 4 -26 16q-10 8 -18 32z" />
    <glyph glyph-name="two" unicode="2" horiz-adv-x="402" 
d="M365 0h-311q-3 21 -3 27q0 12 4 31q9 35 38 70.5t63.5 65t68 57.5t56 57t22.5 55q0 23 -1.5 34t-10 25t-29 19.5t-55.5 5.5t-56 -5.5t-29.5 -19.5t-10 -25t-1.5 -34q-21 -3 -32 -3q-14 0 -33 4q0 24 1.5 39t10 36.5t24.5 34t48 22t77 9.5t77 -9.5t48.5 -22t25 -34
t10 -36.5t1.5 -39q0 -36 -21 -72t-53 -66.5t-65 -58.5t-63.5 -57t-41.5 -52h241q3 -21 3 -30q0 -7 -3 -28z" />
    <glyph glyph-name="three" unicode="3" horiz-adv-x="419" 
d="M182 221q-4 19 -4 30q0 7 3 28q40 0 64 5.5t33.5 19t12 25t2.5 34.5t-1.5 34t-10 25t-29 19.5t-55.5 5.5t-56 -5.5t-29.5 -19.5t-10 -25t-1.5 -34q-21 -3 -32 -3q-14 0 -33 4q0 24 1.5 39t10 36.5t24.5 34t48 22t77 9.5t77 -9.5t48.5 -22t25 -34t10 -36.5t1.5 -39
q0 -84 -41 -114q42 -29 42 -112q0 -25 -1.5 -40t-10 -37t-25 -34.5t-48.5 -22t-77 -9.5q-56 0 -91 12t-49 36t-17.5 43t-3.5 50q19 4 33 4q11 0 32 -3q0 -23 1.5 -34t10 -25t29.5 -19.5t56 -5.5t55.5 5.5t29 19.5t10 25t1.5 34t-2 34t-12 25t-34 19.5t-64 5.5z" />
    <glyph glyph-name="four" unicode="4" horiz-adv-x="396" 
d="M272 500q24 0 33 -3v-282h58q3 -21 3 -30q0 -7 -3 -28h-58v-154q-16 -3 -33 -3q-21 0 -32 3v154h-227q-3 21 -3 27q0 10 3 31l216 282q20 3 43 3zM89 215h151v197z" />
    <glyph glyph-name="five" unicode="5" horiz-adv-x="427" 
d="M221 311q45 0 77 -11.5t48.5 -26.5t25 -40t10 -41.5t1.5 -41.5t-1.5 -41.5t-10 -40t-25 -38t-48.5 -25t-77 -10.5q-38 0 -66.5 5.5t-45.5 16.5t-27.5 22t-15 29.5t-5.5 31t-1 32.5q21 3 32 3q12 0 33 -3q0 -23 1.5 -33.5t10 -23t29.5 -17.5t56 -5q34 0 55 7.5t29 23.5
t10 28.5t2 36.5q0 25 -2 38t-10 31t-29 26.5t-55 8.5q-97 0 -97 -33q-14 -3 -33 -3q-32 0 -32 2v250q0 10 3 31h301q3 -21 3 -30q0 -7 -3 -28h-239v-142q36 11 96 11z" />
    <glyph glyph-name="six" unicode="6" horiz-adv-x="403" 
d="M373 150q0 -25 -1.5 -41.5t-10 -40t-25 -38t-48.5 -25t-77 -10.5t-77 10.5t-48 25t-24.5 38t-10 40t-1.5 41.5v206q0 80 44.5 114.5t126.5 34.5q83 0 134 -16q0 -29 -15 -55q-40 13 -120 13q-105 0 -105 -85v-76q39 17 96 17q45 0 77 -10.5t48.5 -24.5t25 -38t10 -39.5
t1.5 -40.5zM115 146q0 -23 2 -35.5t10.5 -28t29.5 -22.5t55 -7t55 7.5t29 23.5t10 28.5t2 36.5t-2 36.5t-10 28.5t-29 23.5t-55 7.5q-35 0 -56 -7.5t-29 -24t-10 -29.5t-2 -38z" />
    <glyph glyph-name="seven" unicode="7" horiz-adv-x="352" 
d="M324 442l-134 -439q-21 -3 -32 -3q-12 0 -33 3l129 439h-241q-3 21 -3 27q0 10 3 31h311q3 -21 3 -30q0 -7 -3 -28z" />
    <glyph glyph-name="eight" unicode="8" horiz-adv-x="424" 
d="M374 138q0 -25 -1.5 -40t-10 -37t-25 -34.5t-48.5 -22t-77 -9.5t-77 9.5t-48 22t-24.5 34.5t-10 37t-1.5 40t1.5 40.5t11 36.5t27.5 34q-19 13 -28.5 35t-11 38t-1.5 42q0 24 1.5 39t10 36.5t24.5 34t48 22t77 9.5t77 -9.5t48.5 -22t25 -34t10 -36.5t1.5 -39
q0 -84 -41 -114q42 -29 42 -112zM116 137q0 -23 1.5 -34t10 -25t29.5 -19.5t56 -5.5t55.5 5.5t29 19.5t10 25t1.5 34t-1.5 34t-10 25t-29 19.5t-55.5 5.5t-56 -5.5t-29.5 -19.5t-10 -25t-1.5 -34zM115 363q0 -23 1.5 -34t10 -25t29.5 -19.5t56 -5.5t55.5 5.5t29 19.5t10 25
t1.5 34t-1.5 34t-10 25t-29 19.5t-55.5 5.5t-56 -5.5t-29.5 -19.5t-10 -25t-1.5 -34z" />
    <glyph glyph-name="nine" unicode="9" horiz-adv-x="403" 
d="M30 350q0 25 1.5 41.5t10 40t25 38t48.5 25t77 10.5t77 -10.5t48 -25t24.5 -38t10 -40t1.5 -41.5v-206q0 -80 -44.5 -114.5t-126.5 -34.5q-83 0 -134 16q0 30 15 55q40 -13 120 -13q105 0 105 85v76q-36 -17 -96 -17q-45 0 -77 10.5t-48.5 24.5t-25 38t-10 39.5
t-1.5 40.5zM288 351q0 24 -2 36.5t-10 28.5t-29 23.5t-56 7.5q-34 0 -55 -7.5t-29 -23.5t-10 -28.5t-2 -36.5t2 -36.5t10 -28.5t29 -23.5t55 -7.5q35 0 56 7.5t29 23.5t10 28.5t2 36.5z" />
    <glyph glyph-name="colon" unicode=":" 
d="M92 84q12 0 33 -3v-78q-21 -3 -32 -3q-12 0 -33 3v78q21 3 32 3zM92 357q12 0 33 -3v-78q-21 -3 -32 -3h-5.5t-5 0.5t-9 1t-13.5 1.5v78q21 3 32 3z" />
    <glyph glyph-name="semicolon" unicode=";" horiz-adv-x="205" 
d="M110 357q12 0 33 -3v-78q-21 -3 -32 -3h-5.5t-5 0.5t-9 1t-13.5 1.5v78q21 3 32 3zM112 84q12 0 33 -3l-44 -113q-9 -3 -23 -3q-9 0 -18 3l20 113q21 3 32 3z" />
    <glyph glyph-name="less" unicode="&#x3c;" horiz-adv-x="435" 
d="M60 184q0 33 8 55l301 124q6 -11 6 -32q0 -23 -3 -32l-256 -109h-10v-11h10l256 -109q3 -9 3 -32q0 -22 -6 -32l-301 124q-8 22 -8 54z" />
    <glyph glyph-name="equal" unicode="=" horiz-adv-x="387" 
d="M324 235h-261q-3 21 -3 27q0 10 3 31h261q3 -21 3 -30q0 -7 -3 -28zM324 89h-261q-3 21 -3 27q0 10 3 31h261q3 -21 3 -30q0 -7 -3 -28z" />
    <glyph glyph-name="greater" unicode="&#x3e;" horiz-adv-x="435" 
d="M375 184q0 -32 -8 -54l-301 -124q-6 11 -6 32q0 23 3 32l256 109h10v11h-10l-256 109q-3 9 -3 32q0 21 6 32l301 -124q8 -22 8 -55z" />
    <glyph glyph-name="question" unicode="?" horiz-adv-x="382" 
d="M128 129v78q0 33 13.5 57t32 37.5t37.5 25.5t32.5 29t13.5 39q0 29 -16 40.5t-67 11.5q-62 0 -94 -21q-17 24 -20 55q43 24 116 24q74 0 110 -25t36 -85q0 -32 -13.5 -56t-32 -38.5t-37.5 -27t-32.5 -29t-13.5 -37.5v-78q-21 -3 -32 -3q-12 0 -33 3zM161 84q12 0 33 -3
v-78q-21 -3 -32 -3q-12 0 -33 3v78q21 3 32 3z" />
    <glyph glyph-name="at" unicode="@" horiz-adv-x="640" 
d="M518 30q-24 -21 -56.5 -28t-85.5 -7h-112q-88 0 -146 34t-58 112v216q0 71 62 109.5t142 38.5h112q80 0 142 -38.5t62 -109.5v-193q0 -69 -96 -69q-32 0 -55.5 9.5t-23.5 26.5h-9q-28 -30 -79 -30q-38 0 -64 7.5t-39.5 17.5t-20 30t-8 35t-1.5 43v39q0 29 1 43.5t7 35
t19 30t37.5 17t60.5 7.5q60 0 79 -30h8v28q22 2 27 2q4 0 26 -2v-240q0 -13 6 -19.5t12 -7.5t17 -1t16 1t10 7.5t5 19.5v193q0 36 -36.5 63t-102.5 27h-112q-66 0 -102.5 -27t-36.5 -63v-216q0 -45 39 -66.5t100 -21.5h112q91 0 119 25q9 -9 15 -23q6 -16 8 -25zM238 273
v-38q0 -19 1.5 -30t8 -26t24 -22.5t45.5 -7.5t45.5 7.5t24 22.5t8 26t1.5 30v52q0 30 -20.5 50.5t-67.5 20.5q-20 0 -34 -6t-21 -13t-10.5 -20.5t-4 -22t-0.5 -23.5z" />
    <glyph glyph-name="A" unicode="A" horiz-adv-x="436" 
d="M271 492l155 -486q-10 -6 -36 -6q-23 0 -32 3l-51 159h-178l-51 -159q-9 -3 -32 -3q-26 0 -36 6l155 486q22 8 53 8t53 -8zM147 220h142l-71 224z" />
    <glyph glyph-name="B" unicode="B" horiz-adv-x="473" 
d="M428 359q0 -75 -29 -109q29 -32 29 -108q0 -41 -9 -69t-21 -42t-36.5 -21.5t-42 -8.5t-52.5 -1h-207v500h207q25 0 37.5 -0.5t33 -3t31 -7.5t24 -15t20 -25t11 -37.5t4.5 -52.5zM370 359q0 35 -18 55t-38 24t-48 4h-141v-164h141q17 0 28.5 1t27 5.5t25 13t16.5 24
t7 37.5zM266 58q104 0 104 84q0 27 -9 44t-27 23.5t-32 8.5t-36 2h-141v-162h141z" />
    <glyph glyph-name="C" unicode="C" horiz-adv-x="464" 
d="M50 180v140q0 99 55.5 142t157.5 43q105 0 166 -20q0 -29 -15 -55q-55 17 -153 17q-60 0 -103 -31.5t-43 -88.5v-154q0 -57 43 -88.5t103 -31.5q98 0 153 17q15 -26 15 -55q-61 -20 -166 -20q-102 0 -157.5 43t-55.5 142z" />
    <glyph glyph-name="D" unicode="D" horiz-adv-x="492" 
d="M229 0h-169v500h169q102 0 157.5 -43t55.5 -142v-130q0 -99 -55.5 -142t-157.5 -43zM231 442h-106v-384h106q60 0 103 31.5t43 88.5v144q0 57 -43 88.5t-103 31.5z" />
    <glyph glyph-name="E" unicode="E" horiz-adv-x="448" 
d="M395 30q0 -9 -3 -30h-332v500h332q3 -21 3 -30q0 -7 -3 -28h-267v-163h234q3 -21 3 -30q0 -7 -3 -28h-234v-163h267q3 -21 3 -28z" />
    <glyph glyph-name="F" unicode="F" horiz-adv-x="425" 
d="M363 253q0 -9 -3 -30h-235v-220q-21 -3 -32 -3q-12 0 -33 3v497h332q3 -21 3 -30q0 -7 -3 -28h-267v-161h235q3 -21 3 -28z" />
    <glyph glyph-name="G" unicode="G" horiz-adv-x="479" 
d="M396 262q12 0 33 -3v-244q-61 -20 -166 -20q-102 0 -157.5 43t-55.5 142v140q0 99 55.5 142t157.5 43q105 0 166 -20q0 -29 -15 -55q-55 17 -153 17q-60 0 -103 -31.5t-43 -88.5v-154q0 -57 43 -88.5t103 -31.5q53 0 103 7v144h-86q-3 21 -3 28q0 9 3 30h118z" />
    <glyph glyph-name="H" unicode="H" horiz-adv-x="509" 
d="M416 500q12 0 33 -3v-494q-21 -3 -32 -3q-12 0 -33 3v220h-259v-220q-21 -3 -32 -3q-12 0 -33 3v494q21 3 32 3q12 0 33 -3v-216h259v216q21 3 32 3z" />
    <glyph glyph-name="I" unicode="I" 
d="M92 500q12 0 33 -3v-494q-21 -3 -32 -3q-12 0 -33 3v494q21 3 32 3z" />
    <glyph glyph-name="J" unicode="J" horiz-adv-x="368" 
d="M243 105v392q21 3 32 3q12 0 33 -3v-398q0 -50 -28.5 -77t-113.5 -27h-14q-85 0 -113.5 27t-28.5 77v37q21 3 32 3q12 0 33 -3v-30q0 -34 18 -43.5t66 -9.5q49 0 66.5 9t17.5 43z" />
    <glyph glyph-name="K" unicode="K" horiz-adv-x="496" 
d="M92 500q12 0 33 -3v-220l302 223q15 -15 21 -24q7 -9 17 -28l-174 -133l190 -309q-11 -6 -36 -6q-27 0 -36 3l-172 275l-112 -83v-192q-21 -3 -32 -3q-12 0 -33 3v494q21 3 32 3z" />
    <glyph glyph-name="L" unicode="L" horiz-adv-x="401" 
d="M381 30q0 -9 -3 -30h-318v497q21 3 32 3q12 0 33 -3v-439h253q3 -21 3 -28z" />
    <glyph glyph-name="M" unicode="M" horiz-adv-x="622" 
d="M312 90l129 402q22 8 61 8q38 0 60 -8v-488q-7 -4 -31 -4q-25 0 -34 3v439l-149 -439q-9 -3 -36 -3t-37 3l-150 439v-439q-9 -3 -34 -3q-24 0 -31 4v488q22 8 60 8q39 0 61 -8z" />
    <glyph glyph-name="N" unicode="N" horiz-adv-x="534" 
d="M409 57v440q9 3 34 3q24 0 31 -4v-488q-22 -8 -69 -8q-31 0 -41 3l-239 439v-439q-9 -3 -34 -3q-24 0 -31 4v488q22 8 59 8q32 0 54 -8z" />
    <glyph glyph-name="O" unicode="O" horiz-adv-x="496" 
d="M248 -5q-37 0 -65.5 3t-49 11t-35 15t-23.5 22.5t-14.5 26t-7.5 32.5t-2.5 35.5t-0.5 40.5v138q0 27 0.5 40.5t2.5 35.5t7.5 32.5t14.5 26t23.5 22.5t35 15t49 11t65.5 3t65.5 -3t49 -11t35 -15t23.5 -22.5t14.5 -26t7.5 -32.5t2.5 -35.5t0.5 -40.5v-138
q0 -27 -0.5 -40.5t-2.5 -35.5t-7.5 -32.5t-14.5 -26t-23.5 -22.5t-35 -15t-49 -11t-65.5 -3zM248 447q-46 0 -72.5 -6t-40 -23.5t-17 -39t-3.5 -61.5v-134q0 -40 3.5 -61.5t17 -39t40 -23.5t72.5 -6t72.5 6t40 23.5t17 39t3.5 61.5v134q0 40 -3.5 61.5t-17 39t-40 23.5
t-72.5 6z" />
    <glyph glyph-name="P" unicode="P" horiz-adv-x="436" 
d="M250 500q34 0 52.5 -1.5t42.5 -10t36 -25t21 -47.5t9 -77t-9 -77t-21 -47.5t-36 -25t-42.5 -10t-52.5 -1.5h-125v-175q-21 -3 -32 -3q-12 0 -33 3v497h190zM249 236q21 0 36 3t32.5 12.5t26.5 31.5t9 56t-9 56t-26.5 31.5t-32.5 12.5t-36 3h-124v-206h124z" />
    <glyph glyph-name="Q" unicode="Q" horiz-adv-x="496" 
d="M50 181v138q0 27 0.5 40.5t2.5 35.5t7.5 32.5t14.5 26t23.5 22.5t35 15t49 11t65.5 3t65.5 -3t49 -11t35 -15t23.5 -22.5t14.5 -26t7.5 -32.5t2.5 -35.5t0.5 -40.5v-138q0 -30 -0.5 -44.5t-3.5 -37.5t-9.5 -34.5t-18.5 -26.5t-30 -22t-45 -13t-63 -7v-42q4 5 14 5h97
q5 -11 5 -27q0 -14 -3 -26h-119q-28 0 -57 22v68q-48 2 -79.5 13t-48 24t-25 41t-9.5 47t-1 60zM248 447q-46 0 -72.5 -6t-40 -23.5t-17 -39t-3.5 -61.5v-134q0 -40 3.5 -61.5t17 -39t40 -23.5t72.5 -6t72.5 6t40 23.5t17 39t3.5 61.5v134q0 40 -3.5 61.5t-17 39t-40 23.5
t-72.5 6z" />
    <glyph glyph-name="R" unicode="R" horiz-adv-x="470" 
d="M264 500q34 0 52.5 -1.5t42.5 -10t36 -25t21 -47.5t9 -77q0 -115 -57 -146l57 -187q-11 -6 -32 -6q-23 0 -32 3l-57 176q-13 -1 -40 -1h-139v-175q-21 -3 -32 -3q-12 0 -33 3v497h204zM263 236q21 0 36 3t32.5 12.5t26.5 31.5t9 56t-9 56t-26.5 31.5t-32.5 12.5t-36 3
h-138v-206h138z" />
    <glyph glyph-name="S" unicode="S" horiz-adv-x="456" 
d="M65 93q74 -40 167 -40q119 0 119 91q0 26 -31.5 44t-77 30t-91 27t-77 46t-31.5 77q0 74 49.5 105.5t142.5 31.5q107 0 163 -21q-1 -25 -15 -54q-44 17 -146 17q-63 0 -96 -22t-33 -57q0 -27 31.5 -45.5t77 -31t91 -27.5t77 -45t31.5 -75q0 -40 -11.5 -68.5t-27.5 -44
t-43 -24t-48.5 -10.5t-53.5 -2q-51 0 -110 11.5t-82 34.5q2 32 25 52z" />
    <glyph glyph-name="T" unicode="T" horiz-adv-x="419" 
d="M404 470q0 -7 -3 -28h-158v-439q-21 -3 -32 -3q-12 0 -33 3v439h-160q-3 21 -3 27q0 10 3 31h383q3 -21 3 -30z" />
    <glyph glyph-name="U" unicode="U" horiz-adv-x="514" 
d="M454 497v-316q0 -24 -0.5 -36t-2 -32.5t-5 -30t-10 -24.5t-16 -22.5t-24.5 -17t-34.5 -13.5t-45.5 -7t-58 -3q-37 0 -65.5 3t-49 11t-35 15t-23.5 22.5t-14.5 26t-7.5 32.5t-2.5 35.5t-0.5 40.5v316q21 3 32 3q12 0 33 -3v-314q0 -40 3.5 -61.5t17 -39t40 -23.5t72.5 -6
q45 0 71 6t39.5 23.5t17 39t3.5 61.5v314q21 3 32 3q12 0 33 -3z" />
    <glyph glyph-name="V" unicode="V" horiz-adv-x="439" 
d="M219 0q-34 0 -56 8l-153 486q11 6 32 6q25 0 34 -3l143 -444l144 444q9 3 34 3q21 0 32 -6l-154 -486q-22 -8 -56 -8z" />
    <glyph glyph-name="W" unicode="W" horiz-adv-x="661" 
d="M594 500q22 0 32 -6l-85 -486q-22 -8 -62 -8q-28 0 -50 8l-99 284l-98 -284q-22 -8 -50 -8q-40 0 -62 8l-85 486q10 6 32 6q23 0 32 -3l77 -441l123 353q10 3 32 3t31 -3l123 -353l77 441q9 3 32 3z" />
    <glyph glyph-name="X" unicode="X" horiz-adv-x="499" 
d="M484 490l-193 -244l193 -242q-13 -4 -45 -4q-26 0 -40 3l-150 190l-149 -190q-14 -3 -40 -3q-32 0 -45 4l193 242l-193 244q13 10 37 10q31 0 39 -3l158 -199l159 199q8 3 39 3q24 0 37 -10z" />
    <glyph glyph-name="Y" unicode="Y" horiz-adv-x="475" 
d="M96 497l142 -219l141 219q8 3 39 3q18 0 37 -10l-185 -274v-213q-21 -3 -32 -3q-12 0 -33 3v213l-185 274q19 10 37 10q31 0 39 -3z" />
    <glyph glyph-name="Z" unicode="Z" horiz-adv-x="441" 
d="M404 30q0 -9 -3 -30h-378q-3 21 -3 29t3 29l314 384h-314q-3 21 -3 29t3 29h395q3 -21 3 -28q0 -9 -3 -30l-309 -384h292q3 -21 3 -28z" />
    <glyph glyph-name="bracketleft" unicode="[" horiz-adv-x="241" 
d="M178 -58h-85q-12 0 -33 3v610q21 3 32 3h86q3 -21 3 -30q0 -7 -3 -28h-53v-500h53q3 -21 3 -30q0 -7 -3 -28z" />
    <glyph glyph-name="backslash" unicode="\" horiz-adv-x="351" 
d="M124 555l167 -552q-9 -3 -32 -3q-21 0 -32 6l-167 546q10 6 32 6q23 0 32 -3z" />
    <glyph glyph-name="bracketright" unicode="]" horiz-adv-x="241" 
d="M148 -58h-85q-3 21 -3 28q0 9 3 30h53v500h-53q-3 21 -3 28q0 9 3 30h86q11 0 32 -3v-610q-21 -3 -33 -3z" />
    <glyph glyph-name="asciicircum" unicode="^" horiz-adv-x="383" 
d="M192 500q39 0 61 -8l70 -239q-11 -6 -32 -6q-23 0 -32 3l-62 194v10h-11v-10l-62 -194q-9 -3 -32 -3q-22 0 -32 6l70 239q22 8 62 8z" />
    <glyph glyph-name="underscore" unicode="_" horiz-adv-x="488" 
d="M425 -112h-362q-3 21 -3 27q0 10 3 31h362q3 -21 3 -30q0 -7 -3 -28z" />
    <glyph glyph-name="grave" unicode="`" horiz-adv-x="208" 
d="M92 536q12 0 33 -3l23 -141q-2 -3 -9 -3q-27 0 -29 3l-50 141q21 3 32 3z" />
    <glyph glyph-name="a" unicode="a" horiz-adv-x="400" 
d="M185 405q83 0 126.5 -33t43.5 -113v-256q-21 -3 -33 -3q-11 0 -32 3v47q-40 -55 -115 -55t-107.5 28.5t-32.5 98.5q0 64 45.5 94t111.5 30q46 0 89 -19h9v33q0 45 -31.5 66t-81.5 21q-48 0 -95 -15q-15 26 -15 55q57 18 118 18zM177 51q62 0 113 61v77q-9 1 -59 1
q-63 0 -97 -13t-34 -53q0 -71 77 -73z" />
    <glyph glyph-name="b" unicode="b" horiz-adv-x="427" 
d="M230 405q32 0 56.5 -4.5t40.5 -11t26.5 -20t16.5 -24t8.5 -31t3 -33t0.5 -37.5v-88q0 -34 -1.5 -52.5t-10 -42.5t-25 -36t-47.5 -21t-77 -9q-62 0 -96 36v-28q-21 -3 -32 -3q-12 0 -33 3v530q21 3 32 3q12 0 33 -3v-164h9q24 36 96 36zM317 157v86q0 23 -1.5 36
t-8.5 31.5t-26 27.5t-49 9q-58 0 -82.5 -25t-24.5 -62v-103q0 -23 2 -36t10 -31.5t29 -27.5t55 -9t55 9t29 27.5t10 31.5t2 36z" />
    <glyph glyph-name="c" unicode="c" horiz-adv-x="384" 
d="M110 262v-124q0 -85 105 -85q80 0 120 13q15 -25 15 -55q-51 -16 -134 -16q-82 0 -126.5 34.5t-44.5 114.5v112q0 80 44.5 114.5t126.5 34.5q83 0 134 -16q0 -29 -15 -55q-40 13 -120 13q-105 0 -105 -85z" />
    <glyph glyph-name="d" unicode="d" horiz-adv-x="427" 
d="M197 405q72 0 96 -36h9v164q21 3 33 3q11 0 32 -3v-530q-21 -3 -33 -3q-11 0 -32 3v28q-34 -36 -96 -36q-46 0 -77 9t-47.5 21t-25 36t-10 42.5t-1.5 52.5v88q0 25 0.5 37.5t3 33t8.5 31t16.5 24t26.5 20t40.5 11t56.5 4.5zM110 243v-86q0 -23 2 -36t10 -31.5t29 -27.5
t55 -9t55 9t29 27.5t10 31.5t2 36v103q0 37 -24.5 62t-82.5 25q-30 0 -49 -9t-26 -27.5t-8.5 -31.5t-1.5 -36z" />
    <glyph glyph-name="e" unicode="e" horiz-adv-x="412" 
d="M220 -5q-175 0 -175 149v83q0 100 33 139t130 39q98 0 128.5 -36t30.5 -122v-74h-257v-35q0 -85 109 -85q84 0 124 13q15 -25 15 -55q-51 -16 -138 -16zM208 347q-27 0 -41.5 -3t-29 -14t-20.5 -35t-7 -64h192v35q0 41 -18.5 61t-75.5 20z" />
    <glyph glyph-name="f" unicode="f" horiz-adv-x="271" 
d="M195 492q-31 0 -37.5 -15t-6.5 -67v-10h112q3 -20 3 -30q0 -17 -5 -28h-110v-339q-21 -3 -32 -3q-12 0 -33 3v339h-66q-5 11 -5 28q0 10 3 30h68v10q0 82 21.5 111t79.5 29q49 0 84 -11q0 -28 -14 -52q-32 5 -62 5z" />
    <glyph glyph-name="g" unicode="g" horiz-adv-x="427" 
d="M367 397v-432q0 -80 -44.5 -114.5t-126.5 -34.5q-83 0 -134 16q0 30 15 55q40 -13 120 -13q105 0 105 85v72q-34 -36 -96 -36q-46 0 -77 9t-47.5 21t-25 36t-10 42.5t-1.5 52.5v88q0 25 0.5 37.5t3 33t8.5 31t16.5 24t26.5 20t40.5 11t56.5 4.5q72 0 96 -36h9v28
q21 3 32 3q12 0 33 -3zM302 157v103q0 37 -24.5 62t-82.5 25q-30 0 -49 -9t-26 -27.5t-8.5 -31.5t-1.5 -36v-86q0 -23 2 -36t10 -31.5t29 -27.5t55 -9t55 9t29 27.5t10 31.5t2 36z" />
    <glyph glyph-name="h" unicode="h" horiz-adv-x="448" 
d="M92 536q12 0 33 -3v-164h10q13 17 35.5 25.5t38 9.5t43.5 1q70 0 103 -41t33 -111v-250q-21 -3 -33 -3q-11 0 -32 3v232q0 22 -0.5 33t-5.5 29t-14 27t-27 16t-44 7q-107 0 -107 -76v-268q-21 -3 -33 -3q-11 0 -32 3v530q21 3 32 3z" />
    <glyph glyph-name="i" unicode="i" 
d="M92 400q12 0 33 -3v-394q-21 -3 -32 -3q-12 0 -33 3v394q21 3 32 3zM92 542q12 0 33 -3v-78q-21 -3 -32 -3q-12 0 -33 3v78q21 3 32 3z" />
    <glyph glyph-name="j" unicode="j" horiz-adv-x="194" 
d="M69 -44v441q21 3 32 3q12 0 33 -3v-441q0 -80 -28.5 -110t-89.5 -30q-56 0 -97 13q0 29 15 55q36 -10 74 -10q37 0 49 16.5t12 65.5zM101 542q12 0 33 -3v-78q-21 -3 -32 -3q-12 0 -33 3v78q21 3 32 3z" />
    <glyph glyph-name="k" unicode="k" horiz-adv-x="436" 
d="M290 267l131 -255q-14 -12 -34 -12q-26 0 -35 3l-115 224l-112 -83v-141q-21 -3 -32 -3q-12 0 -33 3v530q21 3 32 3q12 0 33 -3v-309l230 173q15 -15 21 -24q8 -9 17 -28z" />
    <glyph glyph-name="l" unicode="l" 
d="M92 536q12 0 33 -3v-530q-21 -3 -32 -3q-12 0 -33 3v530q21 3 32 3z" />
    <glyph glyph-name="m" unicode="m" horiz-adv-x="596" 
d="M92 0q-11 0 -32 3v394q21 3 30 3q8 0 29 -3l6 -28h10q28 36 81 36q74 0 102 -36q28 36 109 36q69 0 96.5 -40t27.5 -112v-250q-21 -3 -33 -3q-11 0 -32 3v232q0 32 -3.5 54t-18.5 40t-42 18q-50 0 -85 -27q8 -24 8 -67v-250q-21 -3 -33 -3q-11 0 -32 3v232q0 112 -69 112
q-50 0 -68 -19t-18 -65v-260q-21 -3 -33 -3z" />
    <glyph glyph-name="n" unicode="n" horiz-adv-x="433" 
d="M92 0q-11 0 -32 3v394q21 3 30 3q8 0 29 -3l6 -28h10q13 17 34 25.5t36 9.5t42 1q70 0 103 -41t33 -111v-250q-21 -3 -33 -3q-11 0 -32 3v232q0 22 -0.5 33t-5.5 29t-14 27t-27 16t-44 7q-56 0 -79 -19.5t-23 -64.5v-260q-21 -3 -33 -3z" />
    <glyph glyph-name="o" unicode="o" horiz-adv-x="412" 
d="M206 405q46 0 77 -9t47.5 -21t25 -36t10 -42.5t1.5 -52.5v-88q0 -34 -1.5 -52.5t-10 -42.5t-25 -36t-47.5 -21t-77 -9t-77 9t-47.5 21t-25 36t-10 42.5t-1.5 52.5v88q0 34 1.5 52.5t10 42.5t25 36t47.5 21t77 9zM302 157v86q0 23 -2 36t-10 31.5t-29 27.5t-55 9t-55 -9
t-29 -27.5t-10 -31.5t-2 -36v-86q0 -23 2 -36t10 -31.5t29 -27.5t55 -9t55 9t29 27.5t10 31.5t2 36z" />
    <glyph glyph-name="p" unicode="p" horiz-adv-x="427" 
d="M93 400q11 0 32 -3v-28h9q24 36 96 36q32 0 56.5 -4.5t40.5 -11t26.5 -20t16.5 -24t8.5 -31t3 -33t0.5 -37.5v-88q0 -34 -1.5 -52.5t-10 -42.5t-25 -36t-47.5 -21t-77 -9q-62 0 -96 36v-212q-21 -3 -33 -3q-11 0 -32 3v578q21 3 33 3zM125 260v-103q0 -23 2 -36t10 -31.5
t29 -27.5t55 -9t55 9t29 27.5t10 31.5t2 36v86q0 23 -1.5 36t-8.5 31.5t-26 27.5t-49 9q-58 0 -82.5 -25t-24.5 -62z" />
    <glyph glyph-name="q" unicode="q" horiz-adv-x="427" 
d="M334 400q12 0 33 -3v-578q-21 -3 -32 -3q-12 0 -33 3v212q-34 -36 -96 -36q-46 0 -77 9t-47.5 21t-25 36t-10 42.5t-1.5 52.5v88q0 25 0.5 37.5t3 33t8.5 31t16.5 24t26.5 20t40.5 11t56.5 4.5q72 0 96 -36h9v28q21 3 32 3zM302 157v103q0 37 -24.5 62t-82.5 25
q-30 0 -49 -9t-26 -27.5t-8.5 -31.5t-1.5 -36v-86q0 -23 2 -36t10 -31.5t29 -27.5t55 -9t55 9t29 27.5t10 31.5t2 36z" />
    <glyph glyph-name="r" unicode="r" horiz-adv-x="274" 
d="M266 347h-39q-56 0 -79 -19.5t-23 -64.5v-260q-21 -3 -33 -3q-11 0 -32 3v394q21 3 30 3q8 0 29 -3l6 -28h10q13 17 34 25.5t36 9.5t42 1h17q5 -11 5 -28q0 -11 -3 -30z" />
    <glyph glyph-name="s" unicode="s" horiz-adv-x="375" 
d="M60 74q21 -9 61 -15t66 -6q50 0 66.5 14t16.5 48q0 21 -24 35.5t-59 24t-69.5 21.5t-58.5 37t-24 62q0 59 39.5 84.5t114.5 25.5q86 0 131 -17q-3 -28 -15 -54q-34 13 -114 13q-52 0 -71.5 -12t-19.5 -40q0 -26 36.5 -43t81 -26t81 -37t36.5 -74q0 -66 -33.5 -93
t-114.5 -27q-90 0 -145 21q2 34 18 58z" />
    <glyph glyph-name="t" unicode="t" horiz-adv-x="284" 
d="M161 121q0 -36 9.5 -49t45.5 -14h43q3 -20 3 -30t-3 -28h-42q-70 0 -95.5 25t-25.5 96v221h-76q-5 11 -5 28q0 10 3 30h78v116q21 3 32 3q12 0 33 -3v-116h97q3 -20 3 -30q0 -17 -5 -28h-95v-221z" />
    <glyph glyph-name="u" unicode="u" horiz-adv-x="428" 
d="M336 400q11 0 32 -3v-394q-21 -3 -30 -3q-8 0 -29 3l-6 28h-10q-13 -17 -34 -25.5t-36 -9.5t-42 -1q-70 0 -103 41t-33 111v250q21 3 33 3q11 0 32 -3v-232q0 -22 0.5 -33t5.5 -29t14 -27t27 -16t44 -7q56 0 79 19.5t23 64.5v260q21 3 33 3z" />
    <glyph glyph-name="v" unicode="v" horiz-adv-x="395" 
d="M198 0q-30 0 -52 8l-136 386q11 6 32 6q27 0 36 -3l120 -346l119 346q9 3 36 3q21 0 32 -6l-135 -386q-22 -8 -52 -8z" />
    <glyph glyph-name="w" unicode="w" horiz-adv-x="534" 
d="M481 400q17 0 33 -3l-76 -389q-22 -8 -46 -8q-32 0 -48 7l-71 266h-10l-71 -266q-16 -7 -48 -7q-24 0 -46 8l-78 389q16 3 33 3t32 -3l61 -337l74 299q17 5 48 5t48 -5l74 -299l59 337q15 3 32 3z" />
    <glyph glyph-name="x" unicode="x" horiz-adv-x="430" 
d="M410 390l-153 -194l153 -192q-13 -4 -45 -4q-26 0 -40 3l-110 140l-110 -140q-14 -3 -40 -3q-32 0 -45 4l153 192l-153 194q19 10 37 10q31 0 39 -3l119 -149l119 149q8 3 39 3q18 0 37 -10z" />
    <glyph glyph-name="y" unicode="y" horiz-adv-x="397" 
d="M345 400q21 0 32 -6l-179 -575q-9 -3 -32 -3q-22 0 -32 6l47 153q3 11 12 15v10h-4q-31 0 -52 8l-117 386q10 6 32 6q23 0 32 -3l109 -341v-10h11v10l109 341q9 3 32 3z" />
    <glyph glyph-name="z" unicode="z" horiz-adv-x="388" 
d="M348 30q0 -9 -3 -30h-302q-3 21 -3 29t3 29l221 284h-221q-3 21 -3 29t3 29h302q3 -21 3 -28q0 -9 -3 -30q-1 -2 -216 -284h216q3 -21 3 -28z" />
    <glyph glyph-name="braceleft" unicode="{" horiz-adv-x="318" 
d="M122 -12v154q0 54 -11 66t-48 12q-3 21 -3 28q0 9 3 30q36 0 47.5 13.5t11.5 67.5v153q0 14 2 22.5t13 16t32 7.5h86q3 -21 3 -29t-3 -29h-46q-29 0 -29 -17v-124q0 -75 -29 -109q29 -32 29 -108v-125q0 -17 29 -17h46q3 -21 3 -29t-3 -29h-86q-21 0 -32 7.5t-13 16
t-2 22.5z" />
    <glyph glyph-name="bar" unicode="|" 
d="M92 558q12 0 33 -3v-610q-21 -3 -32 -3q-12 0 -33 3v610q21 3 32 3z" />
    <glyph glyph-name="braceright" unicode="}" horiz-adv-x="318" 
d="M196 142v-154q0 -14 -2 -22.5t-13 -16t-32 -7.5h-86q-3 21 -3 29t3 29h46q29 0 29 17v125q0 76 29 108q-29 34 -29 109v124q0 17 -29 17h-46q-3 21 -3 29t3 29h86q21 0 32 -7.5t13 -16t2 -22.5v-153q0 -54 11.5 -67.5t47.5 -13.5q3 -21 3 -30q0 -7 -3 -28q-37 0 -48 -12
t-11 -66z" />
    <glyph glyph-name="asciitilde" unicode="~" horiz-adv-x="483" 
d="M60 251q48 41 91 41q33 0 91 -29.5t90 -29.5q29 0 60 25q14 -13 19 -20q3 -3 12 -22q-48 -41 -92 -41q-29 0 -87 29.5t-93 29.5q-29 0 -60 -25q-14 13 -19 20q-10 12 -12 22z" />
    <glyph glyph-name="uni00A0" unicode="&#xa0;" horiz-adv-x="641" 
 />
    <glyph glyph-name="exclamdown" unicode="&#xa1;" 
d="M92 316q-11 0 -32 3v78q21 3 33 3q11 0 32 -3v-78q-21 -3 -33 -3zM92 269q-5 0 -26 -3q-1 -173 -6 -363q21 -3 32 -3t32 3q-5 190 -6 363q-21 3 -26 3z" />
    <glyph glyph-name="cent" unicode="&#xa2;" horiz-adv-x="425" 
d="M350 66q15 -25 15 -55q-43 -14 -120 -16v-65q-21 -3 -32 -3q-12 0 -33 3v69q-120 18 -120 145v112q0 127 120 145v67q21 3 32 3q12 0 33 -3v-63q77 -2 120 -16q0 -29 -15 -55q-40 13 -120 13q-105 0 -105 -85v-124q0 -85 105 -85q80 0 120 13z" />
    <glyph glyph-name="sterling" unicode="&#xa3;" horiz-adv-x="507" 
d="M324 200h-133v-142h253q3 -21 3 -28q0 -9 -3 -30h-318v200h-63q-3 21 -3 27q0 10 3 31h63v113q0 134 130 134q68 0 107 -18q0 -25 -15 -51q-34 11 -92 11q-65 0 -65 -75v-114h133q3 -21 3 -30q0 -7 -3 -28z" />
    <glyph glyph-name="currency" unicode="&#xa4;" horiz-adv-x="510" 
d="M255 76q-53 0 -91 30l-61 -64q-36 15 -40 42l63 63q-21 36 -21 78q0 40 18 74l-63 63q5 32 40 42l59 -62q42 34 96 34t96 -34l59 62q35 -10 40 -42l-63 -63q18 -34 18 -74q0 -42 -21 -78l63 -63q-4 -27 -40 -42l-61 64q-37 -30 -91 -30zM255 319q-40 0 -67 -27.5
t-27 -67.5q0 -39 27 -66t67 -27t67 27t27 66q0 40 -27 67.5t-67 27.5z" />
    <glyph glyph-name="yen" unicode="&#xa5;" horiz-adv-x="555" 
d="M408 167h-98v-38h98q3 -21 3 -30q0 -7 -3 -28h-98v-68q-21 -3 -32 -3q-12 0 -33 3v68h-98q-3 21 -3 27q0 10 3 31h98v38h-98q-3 21 -3 27q0 10 3 31h92l-179 265q19 10 37 10q31 0 39 -3l142 -219l141 219q8 3 39 3q18 0 37 -10l-179 -265h92q3 -21 3 -30q0 -7 -3 -28z
" />
    <glyph glyph-name="brokenbar" unicode="&#xa6;" 
d="M92 558q12 0 33 -3v-233q-21 -3 -32 -3q-12 0 -33 3v233q21 3 32 3zM92 181q12 0 33 -3v-233q-21 -3 -32 -3q-12 0 -33 3v233q21 3 32 3z" />
    <glyph glyph-name="section" unicode="&#xa7;" horiz-adv-x="496" 
d="M85 15q21 -9 61 -15t66 -6q50 0 66.5 14t16.5 48q0 21 -24 35.5t-58.5 24t-69.5 21.5t-59 37t-24 62q0 93 106 107q-30 27 -30 68q0 59 39.5 84.5t114.5 25.5q86 0 131 -17q-3 -28 -15 -54q-34 13 -114 13q-52 0 -71.5 -12t-19.5 -40q0 -26 36.5 -43t81 -26t81 -37
t36.5 -74q0 -54 -22.5 -82t-73.5 -35q20 -23 20 -58q0 -66 -33.5 -93t-114.5 -27q-90 0 -145 21q2 34 18 58zM288 169q50 0 66.5 14t16.5 48q0 57 -155 57q-52 0 -71.5 -12t-19.5 -40q0 -20 19.5 -34.5t48.5 -21t52.5 -9t42.5 -2.5z" />
    <glyph glyph-name="dieresis" unicode="&#xa8;" horiz-adv-x="356" 
d="M92 536q12 0 33 -3v-66q-21 -3 -32 -3q-12 0 -33 3v66q21 3 32 3zM263 536q12 0 33 -3v-66q-21 -3 -32 -3q-12 0 -33 3v66q21 3 32 3z" />
    <glyph glyph-name="copyright" unicode="&#xa9;" horiz-adv-x="630" 
d="M315 505q106 0 180.5 -74.5t74.5 -180.5t-74.5 -180.5t-180.5 -74.5t-180.5 74.5t-74.5 180.5t74.5 180.5t180.5 74.5zM315 43q82 0 144.5 62.5t62.5 144.5t-62.5 144.5t-144.5 62.5t-144.5 -62.5t-62.5 -144.5t62.5 -144.5t144.5 -62.5zM233 201v94q0 66 81 66
q62 0 93 -9q12 18 12 41q-40 13 -104 13t-98 -26.5t-34 -87.5v-88q0 -61 34 -87.5t98 -26.5t104 13q0 23 -12 41q-31 -9 -93 -9q-81 0 -81 66z" />
    <glyph glyph-name="ordfeminine" unicode="&#xaa;" horiz-adv-x="359" 
d="M172 521q62 0 94.5 -25t32.5 -85v-191q-22 -2 -25 -2q-2 0 -24 2v36q-30 -42 -85 -42q-56 0 -80.5 21.5t-24.5 74.5q0 47 34 69.5t84 22.5q32 0 65 -15h7v25q0 65 -84 65q-39 0 -71 -11q-11 20 -11 41q40 14 88 14zM166 256q46 0 84 46v58q-7 1 -43 1q-47 0 -72.5 -10
t-25.5 -40q0 -53 57 -55z" />
    <glyph glyph-name="guillemotleft" unicode="&#xab;" horiz-adv-x="465" 
d="M106 206h10l115 -200q-19 -6 -39 -6q-17 0 -35 6l-89 151q-8 22 -8 55t8 55l89 151q18 6 35 6q20 0 39 -6l-115 -200h-10v-12zM280 206h10l115 -200q-19 -6 -39 -6q-17 0 -35 6l-89 151q-8 22 -8 55t8 55l89 151q18 6 35 6q20 0 39 -6l-115 -200h-10v-12z" />
    <glyph glyph-name="logicalnot" unicode="&#xac;" horiz-adv-x="455" 
d="M330 184h-267q-3 21 -3 32q0 12 3 33h332v-193q-21 -3 -32 -3q-12 0 -33 3v128z" />
    <glyph glyph-name="uni00AD" unicode="&#xad;" horiz-adv-x="513" 
 />
    <glyph glyph-name="registered" unicode="&#xae;" horiz-adv-x="630" 
d="M315 505q106 0 180.5 -74.5t74.5 -180.5t-74.5 -180.5t-180.5 -74.5t-180.5 74.5t-74.5 180.5t74.5 180.5t180.5 74.5zM315 43q82 0 144.5 62.5t62.5 144.5t-62.5 144.5t-144.5 62.5t-144.5 -62.5t-62.5 -144.5t62.5 -144.5t144.5 -62.5zM339 406q26 0 40.5 -2
t30.5 -11.5t23 -31t7 -56.5q0 -73 -35 -93l35 -106q-8 -4 -20 -4q-23 0 -29 3l-36 98h-95v-98q-14 -3 -26 -3q-10 0 -24 3v301h129zM324 247q15 0 23 1t20 6t17.5 17.5t5.5 33.5q0 16 -4.5 27t-10 16.5t-16.5 8.5t-17 3.5t-18 0.5h-64v-114h64z" />
    <glyph glyph-name="macron" unicode="&#xaf;" horiz-adv-x="453" 
d="M390 433h-327q-3 21 -3 27q0 10 3 31h327q3 -21 3 -30q0 -7 -3 -28z" />
    <glyph glyph-name="degree" unicode="&#xb0;" horiz-adv-x="323" 
d="M161 521q42 0 72 -30t30 -72t-30 -71.5t-72 -29.5t-71.5 29.5t-29.5 71.5t29.5 72t71.5 30zM161 372q19 0 33 14t14 33t-14 33t-33 14t-33 -14t-14 -33t14 -33t33 -14z" />
    <glyph glyph-name="plusminus" unicode="&#xb1;" horiz-adv-x="487" 
d="M427 288q0 -7 -3 -28h-148v-151q-21 -3 -32 -3q-12 0 -33 3v151h-148q-3 21 -3 27q0 10 3 31h148v151q21 3 32 3q12 0 33 -3v-151h148q3 -21 3 -30zM424 0h-360q-3 21 -3 28q0 9 3 30h360q3 -21 3 -31q0 -6 -3 -27z" />
    <glyph glyph-name="twosuperior" unicode="&#xb2;" horiz-adv-x="326" 
d="M264 218h-199q0 4 -1 9t-1 7q0 7 3 19q7 25 32.5 52t52.5 46.5t48.5 42.5t21.5 42q0 14 -1 20.5t-6 14.5t-17.5 11.5t-33.5 3.5t-33.5 -3.5t-17.5 -11.5t-6 -14.5t-1 -20.5q-16 -2 -22 -2q-10 0 -23 3q0 17 3 29.5t12.5 26t31.5 21t56 7.5q63 0 83 -23.5t20 -60.5
q0 -26 -20.5 -53.5t-45.5 -46.5t-51.5 -42t-35.5 -39h151q2 -16 2 -21q0 -2 -0.5 -4t-1 -6t-0.5 -7z" />
    <glyph glyph-name="threesuperior" unicode="&#xb3;" horiz-adv-x="328" 
d="M155 349q-3 13 -3 19q0 2 0.5 4t1 6t0.5 7q32 0 47.5 7.5t18 16t2.5 26.5q0 14 -1 20t-6 13t-17.5 9.5t-33.5 2.5q-22 0 -34 -2.5t-17.5 -9.5t-6.5 -13t-1 -20q-16 -2 -22 -2q-11 0 -23 3q0 17 3 29.5t12.5 26.5t31.5 21.5t56 7.5t56.5 -7.5t32 -21.5t12.5 -26.5t3 -29.5
q0 -46 -31 -69q32 -23 32 -68q0 -17 -3 -30t-13 -27t-32 -21.5t-56 -7.5t-56 7.5t-31.5 21.5t-12.5 26.5t-3 29.5q12 3 23 3q4 0 22 -2q0 -14 1 -20t6 -13t17.5 -9.5t33.5 -2.5q40 0 49 9.5t9 35.5q0 14 -1 20.5t-7 15t-20.5 11.5t-38.5 3z" />
    <glyph glyph-name="acute" unicode="&#xb4;" horiz-adv-x="222" 
d="M122 536q15 0 40 -3l-53 -136q-11 -3 -27 -3q-12 0 -22 3l24 136q24 3 38 3z" />
    <glyph glyph-name="mu" unicode="&#xb5;" horiz-adv-x="443" 
d="M135 10h-10v-187q-21 -3 -32 -3q-12 0 -33 3v574q21 3 33 3q11 0 32 -3v-232q0 -22 0.5 -33t5.5 -29t14 -27t27 -16t44 -7q56 0 79 19.5t23 64.5v260q21 3 33 3q11 0 32 -3v-394q-21 -3 -30 -3q-8 0 -29 3l-6 28h-10q-13 -17 -34 -25.5t-36 -9.5t-42 -1q-32 0 -61 15z
" />
    <glyph glyph-name="paragraph" unicode="&#xb6;" horiz-adv-x="503" 
d="M299 457v-637q-21 -3 -32 -3q-12 0 -33 3v306q-74 9 -124 64.5t-50 130.5t50 131t124 66h209v-698q-21 -3 -32 -3q-12 0 -33 3v637h-79z" />
    <glyph glyph-name="periodcentered" unicode="&#xb7;" horiz-adv-x="251" 
d="M60 194q0 28 19 47t46 19q28 0 47 -19t19 -47q0 -27 -19 -46t-47 -19q-27 0 -46 19t-19 46z" />
    <glyph glyph-name="cedilla" unicode="&#xb8;" horiz-adv-x="215" 
d="M100 -195q-14 0 -40 3l46 136q11 3 27 3q12 0 22 -3l-24 -136q-24 -3 -31 -3z" />
    <glyph glyph-name="onesuperior" unicode="&#xb9;" horiz-adv-x="264" 
d="M159 519q16 2 22 2q7 0 23 -2v-299q-16 -2 -22 -2q-7 0 -23 2v246q-57 -38 -76 -49q-2 1 -5 4t-6 6.5t-4 4.5q-8 8 -8 23z" />
    <glyph glyph-name="ordmasculine" unicode="&#xba;" horiz-adv-x="416" 
d="M208 526q62 0 105 -43t43 -105t-43 -105t-105 -43q-61 0 -104.5 43.5t-43.5 104.5t43.5 104.5t104.5 43.5zM208 294q35 0 59.5 24.5t24.5 59.5t-24.5 59.5t-59.5 24.5q-34 0 -58.5 -24.5t-24.5 -59.5t24.5 -59.5t58.5 -24.5z" />
    <glyph glyph-name="guillemotright" unicode="&#xbb;" horiz-adv-x="465" 
d="M349 206h10v12h-10l-115 200q20 6 39 6q17 0 35 -6l89 -151q8 -22 8 -55t-8 -55l-89 -151q-18 -6 -35 -6q-19 0 -39 6zM175 206h10v12h-10l-115 200q20 6 39 6q17 0 35 -6l89 -151q8 -22 8 -55t-8 -55l-89 -151q-18 -6 -35 -6q-19 0 -39 6z" />
    <glyph glyph-name="onequarter" unicode="&#xbc;" horiz-adv-x="624" 
d="M159 498q16 2 22 2q7 0 23 -2v-299q-16 -2 -22 -2q-7 0 -23 2v246q-57 -38 -76 -49q-2 1 -5 4t-6 6.5t-4 4.5q-8 8 -8 23zM397 497l-220 -494q9 -3 27 -3q16 0 27 6l220 488q-11 6 -27 6q-18 0 -27 -3zM504 303q17 0 23 -2v-167h35q2 -16 2 -21q0 -4 -2 -20h-35v-91
q-10 -2 -23 -2q-16 0 -23 2v91h-142q-2 16 -2 19q0 6 2 22l129 167q16 2 36 2zM391 134h90v115z" />
    <glyph glyph-name="onehalf" unicode="&#xbd;" horiz-adv-x="657" 
d="M159 498q16 2 22 2q7 0 23 -2v-299q-16 -2 -22 -2q-7 0 -23 2v246q-57 -38 -76 -49q-2 1 -5 4t-6 6.5t-4 4.5q-8 8 -8 23zM397 497l-220 -494q9 -3 27 -3q16 0 27 6l220 488q-11 6 -27 6q-18 0 -27 -3zM595 0h-199q0 4 -1 9t-1 7q0 7 3 19q7 25 32.5 52t52.5 46.5
t48.5 42.5t21.5 42q0 14 -1 20.5t-6 14.5t-17.5 11.5t-33.5 3.5t-33.5 -3.5t-17.5 -11.5t-6 -14.5t-1 -20.5q-16 -2 -22 -2q-9 0 -23 3q0 17 3 29.5t12.5 26t31.5 21t56 7.5q63 0 83 -23.5t20 -60.5q0 -26 -20.5 -53.5t-45.5 -46.5t-51.5 -42t-35.5 -39h151q2 -16 2 -21
q0 -2 -0.5 -4t-1 -6t-0.5 -7z" />
    <glyph glyph-name="threequarters" unicode="&#xbe;" horiz-adv-x="655" 
d="M428 497l-220 -494q9 -3 27 -3q17 0 27 6l220 488q-10 6 -27 6q-18 0 -27 -3zM535 303q17 0 23 -2v-167h35q2 -16 2 -21q0 -4 -2 -20h-35v-91q-10 -2 -23 -2q-16 0 -23 2v91h-142q-2 16 -2 19q0 6 2 22l129 167q16 2 36 2zM422 134h90v115zM155 333q-3 13 -3 19
q0 2 0.5 4t1 6t0.5 7q32 0 47.5 7.5t18 16t2.5 26.5q0 14 -1 20t-6 13t-17.5 9.5t-33.5 2.5q-22 0 -34 -2.5t-17.5 -9.5t-6.5 -13t-1 -20q-16 -2 -22 -2q-11 0 -23 3q0 17 3 29.5t12.5 26.5t31.5 21.5t56 7.5t56.5 -7.5t32 -21.5t12.5 -26.5t3 -29.5q0 -46 -31 -69
q32 -23 32 -68q0 -17 -3 -30t-13 -27t-32 -21.5t-56 -7.5t-56 7.5t-31.5 21.5t-12.5 26.5t-3 29.5q12 3 23 3q4 0 22 -2q0 -14 1 -20t6 -13t17.5 -9.5t33.5 -2.5q40 0 49 9.5t9 35.5q0 14 -1 20.5t-7 15t-20.5 11.5t-38.5 3z" />
    <glyph glyph-name="questiondown" unicode="&#xbf;" horiz-adv-x="382" 
d="M254 376v-78q0 -33 -13.5 -57t-32 -37.5t-37.5 -25.5t-32.5 -29t-13.5 -39q0 -29 16 -40.5t67 -11.5q62 0 94 21q17 -24 20 -55q-43 -24 -116 -24q-74 0 -110 25t-36 85q0 32 13.5 56t32 38.5t37.5 27t32.5 29t13.5 37.5v78q21 3 32 3q12 0 33 -3zM221 421q-12 0 -33 3
v78q21 3 32 3q12 0 33 -3v-78q-21 -3 -32 -3z" />
    <glyph glyph-name="Agrave" unicode="&#xc0;" horiz-adv-x="436" 
d="M271 492l155 -486q-10 -6 -36 -6q-23 0 -32 3l-51 159h-178l-51 -159q-9 -3 -32 -3q-26 0 -36 6l155 486q22 8 53 8t53 -8zM147 220h142l-71 224zM179 692q14 0 38 -3l24 -136q-10 -3 -22 -3q-16 0 -27 3l-53 136q26 3 40 3z" />
    <glyph glyph-name="Aacute" unicode="&#xc1;" horiz-adv-x="436" 
d="M271 492l155 -486q-10 -6 -36 -6q-23 0 -32 3l-51 159h-178l-51 -159q-9 -3 -32 -3q-26 0 -36 6l155 486q22 8 53 8t53 -8zM147 220h142l-71 224zM258 692q14 0 40 -3l-53 -136q-11 -3 -27 -3q-12 0 -22 3l24 136q24 3 38 3z" />
    <glyph glyph-name="Acircumflex" unicode="&#xc2;" horiz-adv-x="436" 
d="M271 492l155 -486q-10 -6 -36 -6q-23 0 -32 3l-51 159h-178l-51 -159q-9 -3 -32 -3q-26 0 -36 6l155 486q22 8 53 8t53 -8zM147 220h142l-71 224zM250 553l-32 87l-32 -87q-9 -3 -32 -3q-22 0 -32 6l52 130q17 8 44 8t44 -8l52 -130q-10 -6 -32 -6q-23 0 -32 3z" />
    <glyph glyph-name="Atilde" unicode="&#xc3;" horiz-adv-x="436" 
d="M78 594q48 41 91 41q21 0 49.5 -13.5t40.5 -13.5q29 0 60 25q14 -13 19 -20q3 -3 12 -22q-48 -41 -92 -41q-24 0 -52 13.5t-37 13.5q-29 0 -60 -25q-14 13 -19 20q-10 12 -12 22zM271 492l155 -486q-10 -6 -36 -6q-23 0 -32 3l-51 159h-178l-51 -159q-9 -3 -32 -3
q-26 0 -36 6l155 486q22 8 53 8t53 -8zM147 220h142l-71 224z" />
    <glyph glyph-name="Adieresis" unicode="&#xc4;" horiz-adv-x="436" 
d="M271 492l155 -486q-10 -6 -36 -6q-23 0 -32 3l-51 159h-178l-51 -159q-9 -3 -32 -3q-26 0 -36 6l155 486q22 8 53 8t53 -8zM147 220h142l-71 224zM132 622q12 0 33 -3v-66q-21 -3 -32 -3q-12 0 -33 3v66q21 3 32 3zM303 622q12 0 33 -3v-66q-21 -3 -32 -3q-12 0 -33 3v66
q21 3 32 3z" />
    <glyph glyph-name="Aring" unicode="&#xc5;" horiz-adv-x="436" 
d="M271 492l155 -486q-10 -6 -36 -6q-23 0 -32 3l-51 159h-178l-51 -159q-9 -3 -32 -3q-26 0 -36 6l155 486q22 8 53 8t53 -8zM147 220h142l-71 224zM218 717q35 0 59 -24.5t24 -59.5q0 -33 -24.5 -58.5t-58.5 -25.5t-58 25t-24 59q0 35 24 59.5t58 24.5zM218 597
q17 0 27 10t10 26q0 13 -10 23.5t-27 10.5q-14 0 -25 -11t-11 -23q0 -15 11 -25.5t25 -10.5z" />
    <glyph glyph-name="AE" unicode="&#xc6;" horiz-adv-x="705" 
d="M317 162h-145l-96 -159q-10 -3 -36 -3q-29 0 -40 7l296 486q8 7 21 7h332q3 -21 3 -30q0 -7 -3 -28h-267v-163h234q3 -21 3 -30q0 -7 -3 -28h-234v-163h267q3 -21 3 -28q0 -9 -3 -30h-332v162zM205 220h112v186z" />
    <glyph glyph-name="Ccedilla" unicode="&#xc7;" horiz-adv-x="464" 
d="M50 180v140q0 99 55.5 142t157.5 43q105 0 166 -20q0 -29 -15 -55q-55 17 -153 17q-60 0 -103 -31.5t-43 -88.5v-154q0 -57 43 -88.5t103 -31.5q98 0 153 17q15 -26 15 -55q-61 -20 -166 -20q-102 0 -157.5 43t-55.5 142zM229 -195q-15 0 -40 3l46 136q11 3 27 3
q12 0 22 -3l-24 -136q-24 -3 -31 -3z" />
    <glyph glyph-name="Egrave" unicode="&#xc8;" horiz-adv-x="448" 
d="M395 30q0 -9 -3 -30h-332v500h332q3 -21 3 -30q0 -7 -3 -28h-267v-163h234q3 -21 3 -30q0 -7 -3 -28h-234v-163h267q3 -21 3 -28zM190 692q14 0 38 -3l24 -136q-10 -3 -22 -3q-16 0 -27 3l-53 136q25 3 40 3z" />
    <glyph glyph-name="Eacute" unicode="&#xc9;" horiz-adv-x="448" 
d="M395 30q0 -9 -3 -30h-332v500h332q3 -21 3 -30q0 -7 -3 -28h-267v-163h234q3 -21 3 -30q0 -7 -3 -28h-234v-163h267q3 -21 3 -28zM270 692q14 0 40 -3l-53 -136q-11 -3 -27 -3q-12 0 -22 3l24 136q24 3 38 3z" />
    <glyph glyph-name="Ecircumflex" unicode="&#xca;" horiz-adv-x="448" 
d="M395 30q0 -9 -3 -30h-332v500h332q3 -21 3 -30q0 -7 -3 -28h-267v-163h234q3 -21 3 -30q0 -7 -3 -28h-234v-163h267q3 -21 3 -28zM265 553l-32 87l-32 -87q-9 -3 -32 -3q-21 0 -32 6l52 130q17 8 44 8t44 -8l52 -130q-11 -6 -32 -6q-23 0 -32 3z" />
    <glyph glyph-name="Edieresis" unicode="&#xcb;" horiz-adv-x="448" 
d="M395 30q0 -9 -3 -30h-332v500h332q3 -21 3 -30q0 -7 -3 -28h-267v-163h234q3 -21 3 -30q0 -7 -3 -28h-234v-163h267q3 -21 3 -28zM143 622q12 0 33 -3v-66q-21 -3 -32 -3q-12 0 -33 3v66q21 3 32 3zM314 622q12 0 33 -3v-66q-21 -3 -32 -3q-12 0 -33 3v66q21 3 32 3z" />
    <glyph glyph-name="Igrave" unicode="&#xcc;" 
d="M92 500q12 0 33 -3v-494q-21 -3 -32 -3q-12 0 -33 3v494q21 3 32 3zM52 692q14 0 38 -3l24 -136q-10 -3 -22 -3q-16 0 -27 3l-53 136q25 3 40 3z" />
    <glyph glyph-name="Iacute" unicode="&#xcd;" 
d="M92 500q12 0 33 -3v-494q-21 -3 -32 -3q-12 0 -33 3v494q21 3 32 3zM132 692q14 0 40 -3l-53 -136q-11 -3 -27 -3q-12 0 -22 3l24 136q24 3 38 3z" />
    <glyph glyph-name="Icircumflex" unicode="&#xce;" 
d="M92 500q12 0 33 -3v-494q-21 -3 -32 -3q-12 0 -33 3v494q21 3 32 3zM124 553l-32 87l-32 -87q-9 -3 -32 -3q-22 0 -32 6l52 130q17 8 44 8t44 -8l52 -130q-10 -6 -32 -6q-23 0 -32 3z" />
    <glyph glyph-name="Idieresis" unicode="&#xcf;" 
d="M92 500q12 0 33 -3v-494q-21 -3 -32 -3q-12 0 -33 3v494q21 3 32 3zM27 622q12 0 33 -3v-66q-21 -3 -32 -3q-12 0 -33 3v66q21 3 32 3zM157 622q12 0 33 -3v-66q-21 -3 -32 -3q-12 0 -33 3v66q21 3 32 3z" />
    <glyph glyph-name="Eth" unicode="&#xd0;" horiz-adv-x="497" 
d="M234 0h-169v217h-52q-3 21 -3 27q0 10 3 31h52v225h169q102 0 157.5 -43t55.5 -142v-130q0 -99 -55.5 -142t-157.5 -43zM274 217h-144v-159h106q60 0 103 31.5t43 88.5v144q0 57 -43 88.5t-103 31.5h-106v-167h144q3 -21 3 -30q0 -7 -3 -28z" />
    <glyph glyph-name="Ntilde" unicode="&#xd1;" horiz-adv-x="534" 
d="M409 56v441q9 3 34 3q24 0 31 -4v-488q-22 -8 -69 -8q-31 0 -41 3l-239 445v-445q-9 -3 -34 -3q-24 0 -31 4v488q22 8 60 8q33 0 55 -8zM127 594q48 41 91 41q21 0 49.5 -13.5t40.5 -13.5q29 0 60 25q14 -13 19 -20q3 -3 12 -22q-48 -41 -92 -41q-23 0 -52 13.5t-37 13.5
q-29 0 -60 -25q-14 13 -19 20q-10 12 -12 22z" />
    <glyph glyph-name="Ograve" unicode="&#xd2;" horiz-adv-x="496" 
d="M248 -5q37 0 65.5 3t49 11t35 15t23.5 22.5t14.5 26t7.5 32.5t2.5 35.5t0.5 40.5v138q0 27 -0.5 40.5t-2.5 35.5t-7.5 32.5t-14.5 26t-23.5 22.5t-35 15t-49 11t-65.5 3t-65.5 -3t-49 -11t-35 -15t-23.5 -22.5t-14.5 -26t-7.5 -32.5t-2.5 -35.5t-0.5 -40.5v-138
q0 -27 0.5 -40.5t2.5 -35.5t7.5 -32.5t14.5 -26t23.5 -22.5t35 -15t49 -11t65.5 -3zM248 447q46 0 72.5 -6t40 -23.5t17 -39t3.5 -61.5v-134q0 -40 -3.5 -61.5t-17 -39t-40 -23.5t-72.5 -6t-72.5 6t-40 23.5t-17 39t-3.5 61.5v134q0 40 3.5 61.5t17 39t40 23.5t72.5 6z
M209 692q14 0 38 -3l24 -136q-10 -3 -22 -3q-16 0 -27 3l-53 136q25 3 40 3z" />
    <glyph glyph-name="Oacute" unicode="&#xd3;" horiz-adv-x="496" 
d="M248 -5q37 0 65.5 3t49 11t35 15t23.5 22.5t14.5 26t7.5 32.5t2.5 35.5t0.5 40.5v138q0 27 -0.5 40.5t-2.5 35.5t-7.5 32.5t-14.5 26t-23.5 22.5t-35 15t-49 11t-65.5 3t-65.5 -3t-49 -11t-35 -15t-23.5 -22.5t-14.5 -26t-7.5 -32.5t-2.5 -35.5t-0.5 -40.5v-138
q0 -27 0.5 -40.5t2.5 -35.5t7.5 -32.5t14.5 -26t23.5 -22.5t35 -15t49 -11t65.5 -3zM248 447q46 0 72.5 -6t40 -23.5t17 -39t3.5 -61.5v-134q0 -40 -3.5 -61.5t-17 -39t-40 -23.5t-72.5 -6t-72.5 6t-40 23.5t-17 39t-3.5 61.5v134q0 40 3.5 61.5t17 39t40 23.5t72.5 6z
M288 692q14 0 40 -3l-53 -136q-11 -3 -27 -3q-12 0 -22 3l24 136q24 3 38 3z" />
    <glyph glyph-name="Ocircumflex" unicode="&#xd4;" horiz-adv-x="496" 
d="M248 -5q-37 0 -65.5 3t-49 11t-35 15t-23.5 22.5t-14.5 26t-7.5 32.5t-2.5 35.5t-0.5 40.5v138q0 27 0.5 40.5t2.5 35.5t7.5 32.5t14.5 26t23.5 22.5t35 15t49 11t65.5 3t65.5 -3t49 -11t35 -15t23.5 -22.5t14.5 -26t7.5 -32.5t2.5 -35.5t0.5 -40.5v-138
q0 -27 -0.5 -40.5t-2.5 -35.5t-7.5 -32.5t-14.5 -26t-23.5 -22.5t-35 -15t-49 -11t-65.5 -3zM248 447q-46 0 -72.5 -6t-40 -23.5t-17 -39t-3.5 -61.5v-134q0 -40 3.5 -61.5t17 -39t40 -23.5t72.5 -6t72.5 6t40 23.5t17 39t3.5 61.5v134q0 40 -3.5 61.5t-17 39t-40 23.5
t-72.5 6zM280 553l-32 87l-32 -87q-9 -3 -32 -3q-22 0 -32 6l52 130q17 8 44 8t44 -8l52 -130q-10 -6 -32 -6q-23 0 -32 3z" />
    <glyph glyph-name="Otilde" unicode="&#xd5;" horiz-adv-x="496" 
d="M248 -5q37 0 65.5 3t49 11t35 15t23.5 22.5t14.5 26t7.5 32.5t2.5 35.5t0.5 40.5v138q0 27 -0.5 40.5t-2.5 35.5t-7.5 32.5t-14.5 26t-23.5 22.5t-35 15t-49 11t-65.5 3t-65.5 -3t-49 -11t-35 -15t-23.5 -22.5t-14.5 -26t-7.5 -32.5t-2.5 -35.5t-0.5 -40.5v-138
q0 -27 0.5 -40.5t2.5 -35.5t7.5 -32.5t14.5 -26t23.5 -22.5t35 -15t49 -11t65.5 -3zM248 447q46 0 72.5 -6t40 -23.5t17 -39t3.5 -61.5v-134q0 -40 -3.5 -61.5t-17 -39t-40 -23.5t-72.5 -6t-72.5 6t-40 23.5t-17 39t-3.5 61.5v134q0 40 3.5 61.5t17 39t40 23.5t72.5 6z
M113 594q48 41 91 41q21 0 49.5 -13.5t40.5 -13.5q29 0 60 25q14 -13 19 -20q3 -3 12 -22q-48 -41 -92 -41q-23 0 -52 13.5t-37 13.5q-29 0 -60 -25q-14 13 -19 20q-10 12 -12 22z" />
    <glyph glyph-name="Odieresis" unicode="&#xd6;" horiz-adv-x="496" 
d="M248 -5q37 0 65.5 3t49 11t35 15t23.5 22.5t14.5 26t7.5 32.5t2.5 35.5t0.5 40.5v138q0 27 -0.5 40.5t-2.5 35.5t-7.5 32.5t-14.5 26t-23.5 22.5t-35 15t-49 11t-65.5 3t-65.5 -3t-49 -11t-35 -15t-23.5 -22.5t-14.5 -26t-7.5 -32.5t-2.5 -35.5t-0.5 -40.5v-138
q0 -27 0.5 -40.5t2.5 -35.5t7.5 -32.5t14.5 -26t23.5 -22.5t35 -15t49 -11t65.5 -3zM248 447q46 0 72.5 -6t40 -23.5t17 -39t3.5 -61.5v-134q0 -40 -3.5 -61.5t-17 -39t-40 -23.5t-72.5 -6t-72.5 6t-40 23.5t-17 39t-3.5 61.5v134q0 40 3.5 61.5t17 39t40 23.5t72.5 6z
M161 622q12 0 33 -3v-66q-21 -3 -32 -3q-12 0 -33 3v66q21 3 32 3zM332 622q12 0 33 -3v-66q-21 -3 -32 -3q-12 0 -33 3v66q21 3 32 3z" />
    <glyph glyph-name="multiply" unicode="&#xd7;" horiz-adv-x="426" 
d="M213 238l107 106q18 -13 26 -21q1 -1 5 -5.5t7.5 -9.5t7.5 -10l-107 -106l107 -106l-20 -25q-8 -8 -26 -21l-107 106l-107 -106q-18 13 -26 21q-1 1 -5 5.5t-7.5 9.5t-7.5 10l107 106l-107 106q4 5 7.5 10t7.5 9.5t5 5.5q8 8 26 21z" />
    <glyph glyph-name="Oslash" unicode="&#xd8;" horiz-adv-x="496" 
d="M355 494q22 -6 38 -15t26 -23t15.5 -26t8 -34t3 -35.5t0.5 -41.5v-138q0 -27 -0.5 -40.5t-2.5 -35.5t-7.5 -32.5t-14.5 -26t-23.5 -22.5t-35 -15t-49 -11t-65.5 -3q-19 0 -47 2l-17 -55q-11 -6 -32 -6q-23 0 -32 3l20 67q-26 7 -44 20.5t-27 26.5t-13.5 37.5t-5 40.5
t-0.5 50v138q0 27 0.5 40.5t2.5 35.5t7.5 32.5t14.5 26t23.5 22.5t35 15t49 11t65.5 3q17 0 45 -2l20 64q9 3 32 3q21 0 32 -6zM115 183q0 -53 8.5 -79t35.5 -38l117 380q-9 1 -28 1q-46 0 -72.5 -6t-40 -23.5t-17 -39t-3.5 -61.5v-134zM381 183v134q0 53 -8.5 79.5
t-35.5 38.5l-119 -381q10 -1 30 -1q46 0 72.5 6t40 23.5t17 39t3.5 61.5z" />
    <glyph glyph-name="Ugrave" unicode="&#xd9;" horiz-adv-x="514" 
d="M454 497q-21 3 -33 3q-11 0 -32 -3v-314q0 -40 -3.5 -61.5t-17 -39t-39.5 -23.5t-71 -6q-46 0 -72.5 6t-40 23.5t-17 39t-3.5 61.5v314q-21 3 -33 3q-11 0 -32 -3v-316q0 -27 0.5 -40.5t2.5 -35.5t7.5 -32.5t14.5 -26t23.5 -22.5t35 -15t49 -11t65.5 -3q32 0 58 3t45.5 7
t34.5 13.5t24.5 17t16 22.5t10 24.5t5 30t2 32.5t0.5 36v316zM218 692q14 0 38 -3l24 -136q-10 -3 -22 -3q-16 0 -27 3l-53 136q25 3 40 3z" />
    <glyph glyph-name="Uacute" unicode="&#xda;" horiz-adv-x="514" 
d="M454 497q-21 3 -33 3q-11 0 -32 -3v-314q0 -40 -3.5 -61.5t-17 -39t-39.5 -23.5t-71 -6q-46 0 -72.5 6t-40 23.5t-17 39t-3.5 61.5v314q-21 3 -33 3q-11 0 -32 -3v-316q0 -27 0.5 -40.5t2.5 -35.5t7.5 -32.5t14.5 -26t23.5 -22.5t35 -15t49 -11t65.5 -3q32 0 58 3t45.5 7
t34.5 13.5t24.5 17t16 22.5t10 24.5t5 30t2 32.5t0.5 36v316zM298 692q14 0 40 -3l-53 -136q-11 -3 -27 -3q-12 0 -22 3l24 136q24 3 38 3z" />
    <glyph glyph-name="Ucircumflex" unicode="&#xdb;" horiz-adv-x="514" 
d="M454 497v-316q0 -24 -0.5 -36t-2 -32.5t-5 -30t-10 -24.5t-16 -22.5t-24.5 -17t-34.5 -13.5t-45.5 -7t-58 -3q-37 0 -65.5 3t-49 11t-35 15t-23.5 22.5t-14.5 26t-7.5 32.5t-2.5 35.5t-0.5 40.5v316q21 3 32 3q12 0 33 -3v-314q0 -40 3.5 -61.5t17 -39t40 -23.5t72.5 -6
q45 0 71 6t39.5 23.5t17 39t3.5 61.5v314q21 3 32 3q12 0 33 -3zM290 553l-32 87l-32 -87q-9 -3 -32 -3q-22 0 -32 6l52 130q17 8 44 8t44 -8l52 -130q-11 -6 -32 -6q-23 0 -32 3z" />
    <glyph glyph-name="Udieresis" unicode="&#xdc;" horiz-adv-x="514" 
d="M454 497q-21 3 -33 3q-11 0 -32 -3v-314q0 -40 -3.5 -61.5t-17 -39t-39.5 -23.5t-71 -6q-46 0 -72.5 6t-40 23.5t-17 39t-3.5 61.5v314q-21 3 -33 3q-11 0 -32 -3v-316q0 -27 0.5 -40.5t2.5 -35.5t7.5 -32.5t14.5 -26t23.5 -22.5t35 -15t49 -11t65.5 -3q32 0 58 3t45.5 7
t34.5 13.5t24.5 17t16 22.5t10 24.5t5 30t2 32.5t0.5 36v316zM171 622q12 0 33 -3v-66q-21 -3 -32 -3q-12 0 -33 3v66q21 3 32 3zM342 622q12 0 33 -3v-66q-21 -3 -32 -3q-12 0 -33 3v66q21 3 32 3z" />
    <glyph glyph-name="Yacute" unicode="&#xdd;" horiz-adv-x="475" 
d="M238 278l-142 219q-8 3 -39 3q-18 0 -37 -10l185 -274v-213q21 -3 33 -3q11 0 32 3v213l185 274q-19 10 -37 10q-31 0 -39 -3zM278 692q14 0 40 -3l-53 -136q-11 -3 -27 -3q-12 0 -22 3l24 136q24 3 38 3z" />
    <glyph glyph-name="Thorn" unicode="&#xde;" horiz-adv-x="436" 
d="M250 416q34 0 52.5 -1.5t42.5 -10t36 -25t21 -47.5t9 -77t-9 -77t-21 -47.5t-36 -25t-42.5 -10t-52.5 -1.5h-125v-91q-21 -3 -32 -3q-12 0 -33 3v512q21 3 33 3q11 0 32 -3v-99h125zM249 152q21 0 36 3t32.5 12.5t26.5 31.5t9 56t-9 56t-26.5 31.5t-32.5 12.5t-36 3h-124
v-206h124z" />
    <glyph glyph-name="germandbls" unicode="&#xdf;" horiz-adv-x="457" 
d="M60 3v306q0 119 30.5 155.5t139.5 36.5q91 0 134 -27t43 -96q0 -53 -9 -75t-40 -37q49 -36 49 -125v-12q-2 -83 -33.5 -106t-122.5 -23q-3 18 -3 28q0 11 3 30q58 0 74.5 13t16.5 69q0 57 -24 77t-81 20h-10v61h24q58 0 74.5 12t16.5 68q0 18 -6 30t-14 18.5t-25 9.5
t-29.5 3.5t-37.5 0.5q-71 0 -88 -21t-17 -109v-307q-21 -3 -33 -3q-11 0 -32 3z" />
    <glyph glyph-name="agrave" unicode="&#xe0;" horiz-adv-x="400" 
d="M185 405q83 0 126.5 -33t43.5 -113v-256q-21 -3 -33 -3q-11 0 -32 3v47q-40 -55 -115 -55t-107.5 28.5t-32.5 98.5q0 64 45.5 94t111.5 30q46 0 89 -19h9v33q0 45 -31.5 66t-81.5 21q-48 0 -95 -15q-15 26 -15 55q57 18 118 18zM177 51q62 0 113 61v77q-9 1 -59 1
q-63 0 -97 -13t-34 -53q0 -71 77 -73zM168 597q14 0 38 -3l24 -136q-10 -3 -22 -3q-16 0 -27 3l-53 136q26 3 40 3z" />
    <glyph glyph-name="aacute" unicode="&#xe1;" horiz-adv-x="400" 
d="M185 405q83 0 126.5 -33t43.5 -113v-256q-21 -3 -33 -3q-11 0 -32 3v47q-40 -55 -115 -55t-107.5 28.5t-32.5 98.5q0 64 45.5 94t111.5 30q46 0 89 -19h9v33q0 45 -31.5 66t-81.5 21q-48 0 -95 -15q-15 26 -15 55q57 18 118 18zM177 51q62 0 113 61v77q-9 1 -59 1
q-63 0 -97 -13t-34 -53q0 -71 77 -73zM243 597q15 0 40 -3l-53 -136q-11 -3 -27 -3q-12 0 -22 3l24 136q24 3 38 3z" />
    <glyph glyph-name="acircumflex" unicode="&#xe2;" horiz-adv-x="400" 
d="M185 405q83 0 126.5 -33t43.5 -113v-256q-21 -3 -33 -3q-11 0 -32 3v47q-40 -55 -115 -55t-107.5 28.5t-32.5 98.5q0 64 45.5 94t111.5 30q46 0 89 -19h9v33q0 45 -31.5 66t-81.5 21q-48 0 -95 -15q-15 26 -15 55q57 18 118 18zM177 51q62 0 113 61v77q-9 1 -59 1
q-63 0 -97 -13t-34 -53q0 -71 77 -73zM243 458l-32 87l-32 -87q-9 -3 -32 -3q-21 0 -32 6l52 130q17 8 44 8t44 -8l52 -130q-10 -6 -32 -6q-23 0 -32 3z" />
    <glyph glyph-name="atilde" unicode="&#xe3;" horiz-adv-x="400" 
d="M185 405q83 0 126.5 -33t43.5 -113v-256q-21 -3 -33 -3q-11 0 -32 3v47q-40 -55 -115 -55t-107.5 28.5t-32.5 98.5q0 64 45.5 94t111.5 30q46 0 89 -19h9v33q0 45 -31.5 66t-81.5 21q-48 0 -95 -15q-15 26 -15 55q57 18 118 18zM177 51q62 0 113 61v77q-9 1 -59 1
q-63 0 -97 -13t-34 -53q0 -71 77 -73zM77 499q48 41 91 41q21 0 49.5 -13.5t40.5 -13.5q29 0 60 25q14 -13 19 -20q3 -3 12 -22q-48 -41 -92 -41q-23 0 -52 13.5t-37 13.5q-29 0 -60 -25q-14 13 -19 20q-10 12 -12 22z" />
    <glyph glyph-name="adieresis" unicode="&#xe4;" horiz-adv-x="400" 
d="M185 405q83 0 126.5 -33t43.5 -113v-256q-21 -3 -33 -3q-11 0 -32 3v47q-40 -55 -115 -55t-107.5 28.5t-32.5 98.5q0 64 45.5 94t111.5 30q46 0 89 -19h9v33q0 45 -31.5 66t-81.5 21q-48 0 -95 -15q-15 26 -15 55q57 18 118 18zM177 51q62 0 113 61v77q-9 1 -59 1
q-63 0 -97 -13t-34 -53q0 -71 77 -73zM130 527q12 0 33 -3v-66q-21 -3 -32 -3q-12 0 -33 3v66q21 3 32 3zM301 527q12 0 33 -3v-66q-21 -3 -32 -3q-12 0 -33 3v66q21 3 32 3z" />
    <glyph glyph-name="aring" unicode="&#xe5;" horiz-adv-x="400" 
d="M185 405q83 0 126.5 -33t43.5 -113v-256q-21 -3 -33 -3q-11 0 -32 3v47q-40 -55 -115 -55t-107.5 28.5t-32.5 98.5q0 64 45.5 94t111.5 30q46 0 89 -19h9v33q0 45 -31.5 66t-81.5 21q-48 0 -95 -15q-15 26 -15 55q57 18 118 18zM177 51q62 0 113 61v77q-9 1 -59 1
q-63 0 -97 -13t-34 -53q0 -71 77 -73zM217 623q35 0 59 -24.5t24 -59.5q0 -33 -24.5 -58.5t-58.5 -25.5t-58 25t-24 59q0 35 24 59.5t58 24.5zM217 503q17 0 27 10t10 26q0 13 -10 23.5t-27 10.5q-14 0 -25 -11t-11 -23q0 -15 11 -25.5t25 -10.5z" />
    <glyph glyph-name="ae" unicode="&#xe6;" horiz-adv-x="658" 
d="M466 -5q-108 0 -149 55q-42 -55 -141 -55q-75 0 -107.5 28.5t-32.5 98.5q0 64 45.5 94t111.5 30q46 0 89 -19h9v33q0 45 -31.5 66t-81.5 21q-48 0 -95 -15q-15 26 -15 55q57 18 118 18q97 0 136 -42q35 42 132 42q98 0 128.5 -36t30.5 -122v-74h-257v-40q0 -80 109 -80
q84 0 124 13q15 -25 15 -55q-51 -16 -138 -16zM178 51q68 0 117 53q-4 16 -4 40v45q-9 1 -59 1q-63 0 -97 -13t-34 -53q0 -71 77 -73zM454 347q-27 0 -41.5 -3t-29 -14t-20.5 -35t-7 -64h192v35q0 41 -18.5 61t-75.5 20z" />
    <glyph glyph-name="ccedilla" unicode="&#xe7;" horiz-adv-x="384" 
d="M110 262v-124q0 -85 105 -85q80 0 120 13q15 -25 15 -55q-51 -16 -134 -16q-82 0 -126.5 34.5t-44.5 114.5v112q0 80 44.5 114.5t126.5 34.5q83 0 134 -16q0 -29 -15 -55q-40 13 -120 13q-105 0 -105 -85zM193 -195q-15 0 -40 3l46 136q11 3 27 3q12 0 22 -3l-24 -136
q-24 -3 -31 -3z" />
    <glyph glyph-name="egrave" unicode="&#xe8;" horiz-adv-x="417" 
d="M225 -5q-175 0 -175 149v83q0 100 33 139t130 39q98 0 128.5 -36t30.5 -122v-74h-257v-35q0 -85 109 -85q84 0 124 13q15 -25 15 -55q-51 -16 -138 -16zM213 347q-27 0 -41.5 -3t-29 -14t-20.5 -35t-7 -64h192v35q0 41 -18.5 61t-75.5 20zM175 597q14 0 38 -3l24 -136
q-10 -3 -22 -3q-16 0 -27 3l-53 136q25 3 40 3z" />
    <glyph glyph-name="eacute" unicode="&#xe9;" horiz-adv-x="417" 
d="M225 -5q-175 0 -175 149v83q0 100 33 139t130 39q98 0 128.5 -36t30.5 -122v-74h-257v-35q0 -85 109 -85q84 0 124 13q15 -25 15 -55q-51 -16 -138 -16zM213 347q-27 0 -41.5 -3t-29 -14t-20.5 -35t-7 -64h192v35q0 41 -18.5 61t-75.5 20zM251 597q15 0 40 -3l-53 -136
q-11 -3 -27 -3q-12 0 -22 3l24 136q24 3 38 3z" />
    <glyph glyph-name="ecircumflex" unicode="&#xea;" horiz-adv-x="417" 
d="M225 -5q-175 0 -175 149v83q0 100 33 139t130 39q98 0 128.5 -36t30.5 -122v-74h-257v-35q0 -85 109 -85q84 0 124 13q15 -25 15 -55q-51 -16 -138 -16zM213 347q-27 0 -41.5 -3t-29 -14t-20.5 -35t-7 -64h192v35q0 41 -18.5 61t-75.5 20zM246 458l-32 87l-32 -87
q-9 -3 -32 -3q-22 0 -32 6l52 130q17 8 44 8t44 -8l52 -130q-10 -6 -32 -6q-23 0 -32 3z" />
    <glyph glyph-name="edieresis" unicode="&#xeb;" horiz-adv-x="417" 
d="M225 -5q-175 0 -175 149v83q0 100 33 139t130 39q98 0 128.5 -36t30.5 -122v-74h-257v-35q0 -85 109 -85q84 0 124 13q15 -25 15 -55q-51 -16 -138 -16zM213 347q-27 0 -41.5 -3t-29 -14t-20.5 -35t-7 -64h192v35q0 41 -18.5 61t-75.5 20zM133 527q12 0 33 -3v-66
q-21 -3 -32 -3q-12 0 -33 3v66q21 3 32 3zM304 527q12 0 33 -3v-66q-21 -3 -32 -3q-12 0 -33 3v66q21 3 32 3z" />
    <glyph glyph-name="igrave" unicode="&#xec;" 
d="M92 400q12 0 33 -3v-394q-21 -3 -32 -3q-12 0 -33 3v394q21 3 32 3zM54 597q14 0 38 -3l24 -136q-10 -3 -22 -3q-16 0 -27 3l-53 136q25 3 40 3z" />
    <glyph glyph-name="iacute" unicode="&#xed;" 
d="M92 400q12 0 33 -3v-394q-21 -3 -32 -3q-12 0 -33 3v394q21 3 32 3zM131 597q15 0 40 -3l-53 -136q-11 -3 -27 -3q-12 0 -22 3l24 136q24 3 38 3z" />
    <glyph glyph-name="icircumflex" unicode="&#xee;" 
d="M92 400q12 0 33 -3v-394q-21 -3 -32 -3q-12 0 -33 3v394q21 3 32 3zM124 458l-32 87l-32 -87q-9 -3 -32 -3q-22 0 -32 6l52 130q17 8 44 8t44 -8l52 -130q-10 -6 -32 -6q-23 0 -32 3z" />
    <glyph glyph-name="idieresis" unicode="&#xef;" 
d="M92 400q12 0 33 -3v-394q-21 -3 -32 -3q-12 0 -33 3v394q21 3 32 3zM27 527q12 0 33 -3v-66q-21 -3 -32 -3q-12 0 -33 3v66q21 3 32 3zM157 527q12 0 33 -3v-66q-21 -3 -32 -3q-12 0 -33 3v66q21 3 32 3z" />
    <glyph glyph-name="eth" unicode="&#xf0;" horiz-adv-x="422" 
d="M144 503h68l-29 52q11 6 32 6q29 0 38 -3l32 -55h84q3 -21 3 -25q0 -2 -3 -23h-58q61 -114 61 -175v-124q0 -34 -1.5 -52.5t-10 -42.5t-25 -36t-47.5 -21t-77 -9t-77 9t-47.5 21t-25 36t-10 42.5t-1.5 52.5v88q0 34 1.5 52.5t10 42.5t25 36t47.5 21t77 9q35 0 59 -5
l-31 55h-95q-3 21 -3 22q0 5 3 26zM307 157v86q0 23 -2 36t-10 31.5t-29 27.5t-55 9t-55 -9t-29 -27.5t-10 -31.5t-2 -36v-86q0 -23 2 -36t10 -31.5t29 -27.5t55 -9t55 9t29 27.5t10 31.5t2 36z" />
    <glyph glyph-name="ntilde" unicode="&#xf1;" horiz-adv-x="433" 
d="M92 0q-11 0 -32 3v394q21 3 30 3q8 0 29 -3l6 -28h10q13 17 34 25.5t36 9.5t42 1q70 0 103 -41t33 -111v-250q-21 -3 -33 -3q-11 0 -32 3v232q0 22 -0.5 33t-5.5 29t-14 27t-27 16t-44 7q-56 0 -79 -19.5t-23 -64.5v-260q-21 -3 -33 -3zM88 499q48 41 91 41
q21 0 49.5 -13.5t40.5 -13.5q29 0 60 25q14 -13 19 -20q3 -3 12 -22q-48 -41 -92 -41q-24 0 -52 13.5t-37 13.5q-29 0 -60 -25q-14 13 -19 20q-10 12 -12 22z" />
    <glyph glyph-name="ograve" unicode="&#xf2;" horiz-adv-x="422" 
d="M211 405q46 0 77 -9t47.5 -21t25 -36t10 -42.5t1.5 -52.5v-88q0 -34 -1.5 -52.5t-10 -42.5t-25 -36t-47.5 -21t-77 -9t-77 9t-47.5 21t-25 36t-10 42.5t-1.5 52.5v88q0 34 1.5 52.5t10 42.5t25 36t47.5 21t77 9zM307 157v86q0 23 -2 36t-10 31.5t-29 27.5t-55 9t-55 -9
t-29 -27.5t-10 -31.5t-2 -36v-86q0 -23 2 -36t10 -31.5t29 -27.5t55 -9t55 9t29 27.5t10 31.5t2 36zM171 597q14 0 38 -3l24 -136q-10 -3 -22 -3q-16 0 -27 3l-53 136q25 3 40 3z" />
    <glyph glyph-name="oacute" unicode="&#xf3;" horiz-adv-x="422" 
d="M211 405q46 0 77 -9t47.5 -21t25 -36t10 -42.5t1.5 -52.5v-88q0 -34 -1.5 -52.5t-10 -42.5t-25 -36t-47.5 -21t-77 -9t-77 9t-47.5 21t-25 36t-10 42.5t-1.5 52.5v88q0 34 1.5 52.5t10 42.5t25 36t47.5 21t77 9zM307 157v86q0 23 -2 36t-10 31.5t-29 27.5t-55 9t-55 -9
t-29 -27.5t-10 -31.5t-2 -36v-86q0 -23 2 -36t10 -31.5t29 -27.5t55 -9t55 9t29 27.5t10 31.5t2 36zM252 597q14 0 40 -3l-53 -136q-11 -3 -27 -3q-12 0 -22 3l24 136q24 3 38 3z" />
    <glyph glyph-name="ocircumflex" unicode="&#xf4;" horiz-adv-x="422" 
d="M211 405q46 0 77 -9t47.5 -21t25 -36t10 -42.5t1.5 -52.5v-88q0 -34 -1.5 -52.5t-10 -42.5t-25 -36t-47.5 -21t-77 -9t-77 9t-47.5 21t-25 36t-10 42.5t-1.5 52.5v88q0 34 1.5 52.5t10 42.5t25 36t47.5 21t77 9zM307 157v86q0 23 -2 36t-10 31.5t-29 27.5t-55 9t-55 -9
t-29 -27.5t-10 -31.5t-2 -36v-86q0 -23 2 -36t10 -31.5t29 -27.5t55 -9t55 9t29 27.5t10 31.5t2 36zM243 458l-32 87l-32 -87q-9 -3 -32 -3q-21 0 -32 6l52 130q17 8 44 8t44 -8l52 -130q-10 -6 -32 -6q-23 0 -32 3z" />
    <glyph glyph-name="otilde" unicode="&#xf5;" horiz-adv-x="422" 
d="M211 405q46 0 77 -9t47.5 -21t25 -36t10 -42.5t1.5 -52.5v-88q0 -34 -1.5 -52.5t-10 -42.5t-25 -36t-47.5 -21t-77 -9t-77 9t-47.5 21t-25 36t-10 42.5t-1.5 52.5v88q0 34 1.5 52.5t10 42.5t25 36t47.5 21t77 9zM307 157v86q0 23 -2 36t-10 31.5t-29 27.5t-55 9t-55 -9
t-29 -27.5t-10 -31.5t-2 -36v-86q0 -23 2 -36t10 -31.5t29 -27.5t55 -9t55 9t29 27.5t10 31.5t2 36zM72 499q48 41 91 41q21 0 49.5 -13.5t40.5 -13.5q29 0 60 25q14 -13 19 -20q2 -3 12 -22q-48 -41 -92 -41q-24 0 -52 13.5t-37 13.5q-29 0 -60 -25q-14 13 -19 20
q-10 12 -12 22z" />
    <glyph glyph-name="odieresis" unicode="&#xf6;" horiz-adv-x="422" 
d="M211 405q46 0 77 -9t47.5 -21t25 -36t10 -42.5t1.5 -52.5v-88q0 -34 -1.5 -52.5t-10 -42.5t-25 -36t-47.5 -21t-77 -9t-77 9t-47.5 21t-25 36t-10 42.5t-1.5 52.5v88q0 34 1.5 52.5t10 42.5t25 36t47.5 21t77 9zM307 157v86q0 23 -2 36t-10 31.5t-29 27.5t-55 9t-55 -9
t-29 -27.5t-10 -31.5t-2 -36v-86q0 -23 2 -36t10 -31.5t29 -27.5t55 -9t55 9t29 27.5t10 31.5t2 36zM124 527q12 0 33 -3v-66q-21 -3 -32 -3q-12 0 -33 3v66q21 3 32 3zM295 527q12 0 33 -3v-66q-21 -3 -32 -3q-12 0 -33 3v66q21 3 32 3z" />
    <glyph glyph-name="divide" unicode="&#xf7;" horiz-adv-x="488" 
d="M63 225h362q3 -21 3 -30q0 -7 -3 -28h-362q-3 21 -3 27q0 10 3 31zM243 365q12 0 33 -3v-78q-21 -3 -32 -3q-12 0 -33 3v78q21 3 32 3zM243 111q12 0 33 -3v-78q-21 -3 -32 -3q-12 0 -33 3v78q21 3 32 3z" />
    <glyph glyph-name="oslash" unicode="&#xf8;" horiz-adv-x="422" 
d="M303 392q24 -9 39 -23t21 -36t7.5 -40t1.5 -49v-88q0 -34 -1.5 -52.5t-10 -42.5t-25 -36t-47.5 -21t-77 -9q-22 0 -31 1l-14 -43q-10 -6 -32 -6q-23 0 -32 3l18 57q-24 9 -39 23t-21.5 36t-8 40t-1.5 50v88q0 34 1.5 52.5t10 42.5t25 36t47.5 21t77 9q21 0 31 -1l13 45
q9 3 32 3q21 0 32 -6zM115 157q0 -63 25 -84l84 274h-13q-34 0 -55 -9t-29 -27.5t-10 -31.5t-2 -36v-86zM307 157v86q0 63 -25 84l-84 -274h13q34 0 55 9t29 27.5t10 31.5t2 36z" />
    <glyph glyph-name="ugrave" unicode="&#xf9;" horiz-adv-x="433" 
d="M341 400q11 0 32 -3v-394q-21 -3 -30 -3q-8 0 -29 3l-6 28h-10q-13 -17 -34 -25.5t-36 -9.5t-42 -1q-70 0 -103 41t-33 111v250q21 3 33 3q11 0 32 -3v-232q0 -22 0.5 -33t5.5 -29t14 -27t27 -16t44 -7q56 0 79 19.5t23 64.5v260q21 3 33 3zM178 597q14 0 38 -3l24 -136
q-10 -3 -22 -3q-16 0 -27 3l-53 136q25 3 40 3z" />
    <glyph glyph-name="uacute" unicode="&#xfa;" horiz-adv-x="433" 
d="M341 400q11 0 32 -3v-394q-21 -3 -30 -3q-8 0 -29 3l-6 28h-10q-13 -17 -34 -25.5t-36 -9.5t-42 -1q-70 0 -103 41t-33 111v250q21 3 33 3q11 0 32 -3v-232q0 -22 0.5 -33t5.5 -29t14 -27t27 -16t44 -7q56 0 79 19.5t23 64.5v260q21 3 33 3zM252 597q14 0 40 -3l-53 -136
q-11 -3 -27 -3q-12 0 -22 3l24 136q24 3 38 3z" />
    <glyph glyph-name="ucircumflex" unicode="&#xfb;" horiz-adv-x="433" 
d="M341 400q11 0 32 -3v-394q-21 -3 -30 -3q-8 0 -29 3l-6 28h-10q-13 -17 -34 -25.5t-36 -9.5t-42 -1q-70 0 -103 41t-33 111v250q21 3 33 3q11 0 32 -3v-232q0 -22 0.5 -33t5.5 -29t14 -27t27 -16t44 -7q56 0 79 19.5t23 64.5v260q21 3 33 3zM242 458l-32 87l-32 -87
q-9 -3 -32 -3q-22 0 -32 6l52 130q17 8 44 8t44 -8l52 -130q-10 -6 -32 -6q-23 0 -32 3z" />
    <glyph glyph-name="udieresis" unicode="&#xfc;" horiz-adv-x="433" 
d="M341 400q11 0 32 -3v-394q-21 -3 -30 -3q-8 0 -29 3l-6 28h-10q-13 -17 -34 -25.5t-36 -9.5t-42 -1q-70 0 -103 41t-33 111v250q21 3 33 3q11 0 32 -3v-232q0 -22 0.5 -33t5.5 -29t14 -27t27 -16t44 -7q56 0 79 19.5t23 64.5v260q21 3 33 3zM126 527q12 0 33 -3v-66
q-21 -3 -32 -3q-12 0 -33 3v66q21 3 32 3zM297 527q12 0 33 -3v-66q-21 -3 -32 -3q-12 0 -33 3v66q21 3 32 3z" />
    <glyph glyph-name="yacute" unicode="&#xfd;" horiz-adv-x="397" 
d="M345 400q21 0 32 -6l-179 -575q-9 -3 -32 -3q-22 0 -32 6l47 153q3 11 12 15v10h-4q-31 0 -52 8l-117 386q10 6 32 6q23 0 32 -3l109 -341v-10h11v10l109 341q9 3 32 3zM239 597q14 0 40 -3l-53 -136q-11 -3 -27 -3q-12 0 -22 3l24 136q24 3 38 3z" />
    <glyph glyph-name="thorn" unicode="&#xfe;" horiz-adv-x="436" 
d="M250 405q34 0 52.5 -1.5t42.5 -10t36 -25t21 -47.5t9 -77v-83q0 -46 -9 -77t-21 -47.5t-36 -25t-42.5 -10t-52.5 -1.5h-125v-181q-21 -3 -32 -3q-12 0 -33 3v696q21 3 32 3q12 0 33 -3v-110h125zM353 161v83q0 34 -9 56t-26.5 31.5t-32.5 12.5t-36 3h-124v-289h124
q21 0 36 3t32.5 12.5t26.5 31.5t9 56z" />
    <glyph glyph-name="ydieresis" unicode="&#xff;" horiz-adv-x="397" 
d="M345 400q21 0 32 -6l-179 -575q-9 -3 -32 -3q-22 0 -32 6l47 153q3 11 12 15v10h-4q-31 0 -52 8l-117 386q10 6 32 6q23 0 32 -3l109 -341v-10h11v10l109 341q9 3 32 3zM113 527q12 0 33 -3v-66q-21 -3 -32 -3q-12 0 -33 3v66q21 3 32 3zM284 527q12 0 33 -3v-66
q-21 -3 -32 -3q-12 0 -33 3v66q21 3 32 3z" />
    <glyph glyph-name="dotlessi" unicode="&#x131;" 
d="M92 400q12 0 33 -3v-394q-21 -3 -32 -3q-12 0 -33 3v394q21 3 32 3z" />
    <glyph glyph-name="Lslash" unicode="&#x141;" horiz-adv-x="420" 
d="M252 241l-108 -20v-163h253q3 -21 3 -28q0 -9 -3 -30h-318v210l-56 -10q-3 21 -3 27q0 10 3 31l56 10v229q21 3 32 3q12 0 33 -3v-218l108 20q3 -21 3 -30q0 -7 -3 -28z" />
    <glyph glyph-name="lslash" unicode="&#x142;" horiz-adv-x="221" 
d="M69 268v229q21 3 32 3q12 0 33 -3v-218l74 13q3 -21 3 -30q0 -7 -3 -28l-74 -13v-218q-21 -3 -32 -3q-12 0 -33 3v207l-56 -10q-3 21 -3 27q0 10 3 31z" />
    <glyph glyph-name="OE" unicode="&#x152;" horiz-adv-x="729" 
d="M676 30q0 -9 -3 -30h-326q-50 -5 -84 -5q-102 0 -157.5 43t-55.5 142v140q0 99 55.5 142t157.5 43q36 0 88 -5h322q3 -21 3 -30q0 -7 -3 -28h-267v-163h234q3 -21 3 -30q0 -7 -3 -28h-234v-163h267q3 -21 3 -28zM261 53q47 0 80 5v385q-36 4 -80 4q-60 0 -103 -31.5
t-43 -88.5v-154q0 -57 43 -88.5t103 -31.5z" />
    <glyph glyph-name="oe" unicode="&#x153;" horiz-adv-x="674" 
d="M482 -5q-97 0 -136 56q-16 -30 -47.5 -43t-87.5 -13q-46 0 -77 9t-47.5 21t-25 36t-10 42.5t-1.5 52.5v88q0 34 1.5 52.5t10 42.5t25 36t47.5 21t77 9q101 0 131 -52q32 52 128 52q98 0 128.5 -36t30.5 -122v-74h-257v-37q1 -83 109 -83q84 0 124 13q15 -25 15 -55
q-51 -16 -138 -16zM307 157v86q0 23 -2 36t-10 31.5t-29 27.5t-55 9t-55 -9t-29 -27.5t-10 -31.5t-2 -36v-86q0 -23 2 -36t10 -31.5t29 -27.5t55 -9t55 9t29 27.5t10 31.5t2 36zM470 347q-27 0 -41.5 -3t-29 -14t-20.5 -35t-7 -64h192v35q0 41 -18.5 61t-75.5 20z" />
    <glyph glyph-name="Scaron" unicode="&#x160;" horiz-adv-x="456" 
d="M235 604l32 87q9 3 32 3q21 0 32 -6l-52 -130q-17 -8 -44 -8t-44 8l-52 130q11 6 32 6q23 0 32 -3zM65 93q74 -40 167 -40q119 0 119 91q0 26 -31.5 44t-77 30t-91 27t-77 46t-31.5 77q0 74 49.5 105.5t142.5 31.5q107 0 163 -21q-1 -25 -15 -54q-44 17 -146 17
q-63 0 -96 -22t-33 -57q0 -27 31.5 -45.5t77 -31t91 -27.5t77 -45t31.5 -75q0 -40 -11.5 -68.5t-27.5 -44t-43 -24t-48.5 -10.5t-53.5 -2q-51 0 -110 11.5t-82 34.5q2 32 25 52z" />
    <glyph glyph-name="scaron" unicode="&#x161;" horiz-adv-x="380" 
d="M65 74q21 -9 61 -15t66 -6q50 0 66.5 14t16.5 48q0 21 -24 35.5t-58.5 24t-69.5 21.5t-59 37t-24 62q0 59 39.5 84.5t114.5 25.5q86 0 131 -17q-3 -28 -15 -54q-34 13 -114 13q-52 0 -71.5 -12t-19.5 -40q0 -26 36.5 -43t81 -26t81 -37t36.5 -74q0 -66 -33.5 -93
t-114.5 -27q-90 0 -145 21q2 34 18 58zM190 509l32 87q9 3 32 3q22 0 32 -6l-52 -130q-17 -8 -44 -8t-44 8l-52 130q11 6 32 6q23 0 32 -3z" />
    <glyph glyph-name="Ydieresis" unicode="&#x178;" horiz-adv-x="475" 
d="M238 278l-142 219q-8 3 -39 3q-18 0 -37 -10l185 -274v-213q21 -3 33 -3q11 0 32 3v213l185 274q-19 10 -37 10q-31 0 -39 -3zM151 622q12 0 33 -3v-66q-21 -3 -32 -3q-12 0 -33 3v66q21 3 32 3zM322 622q12 0 33 -3v-66q-21 -3 -32 -3q-12 0 -33 3v66q21 3 32 3z" />
    <glyph glyph-name="Zcaron" unicode="&#x17d;" horiz-adv-x="441" 
d="M404 30q0 -9 -3 -30h-378q-3 21 -3 29t3 29l314 384h-314q-3 21 -3 29t3 29h395q3 -21 3 -28q0 -9 -3 -30l-309 -384h292q3 -21 3 -28zM225 604l32 87q9 3 32 3q21 0 32 -6l-52 -130q-17 -8 -44 -8t-44 8l-52 130q11 6 32 6q23 0 32 -3z" />
    <glyph glyph-name="zcaron" unicode="&#x17e;" horiz-adv-x="388" 
d="M348 30q0 -9 -3 -30h-302q-3 21 -3 29t3 29l221 284h-221q-3 21 -3 29t3 29h302q3 -21 3 -28q0 -9 -3 -30q-1 -2 -216 -284h216q3 -21 3 -28zM204 509l32 87q9 3 32 3q22 0 32 -6l-52 -130q-17 -8 -44 -8t-44 8l-52 130q11 6 32 6q23 0 32 -3z" />
    <glyph glyph-name="florin" unicode="&#x192;" horiz-adv-x="302" 
d="M42 -183l47 493h-66q-3 10 -3 26v8q2 14 7 24h68l1 11q8 82 32.5 111t82.5 29q49 0 83 -11q-2 -26 -19 -52q-32 5 -62 5q-31 0 -39 -15t-13 -67l-1 -11h112q0 -4 0.5 -9.5t0.5 -7.5q0 -3 -0.5 -7.5t-0.5 -5.5q-2 -17 -8 -28h-110l-47 -493q-21 -3 -33 -3q-11 0 -32 3z
" />
    <glyph glyph-name="circumflex" unicode="&#x2c6;" horiz-adv-x="312" 
d="M188 395l-32 87l-32 -87q-9 -3 -32 -3q-22 0 -32 6l52 130q17 8 44 8t44 -8l52 -130q-11 -6 -32 -6q-23 0 -32 3z" />
    <glyph glyph-name="caron" unicode="&#x2c7;" horiz-adv-x="312" 
d="M156 446l32 87q9 3 32 3q21 0 32 -6l-52 -130q-17 -8 -44 -8t-44 8l-52 130q10 6 32 6q23 0 32 -3z" />
    <glyph glyph-name="breve" unicode="&#x2d8;" horiz-adv-x="433" 
d="M308 497q21 3 32 3q12 0 33 -3q0 -79 -31.5 -101t-124.5 -22q-94 0 -125.5 22t-31.5 101q21 3 32 3q12 0 33 -3q0 -38 18.5 -50t73.5 -12t73 12t18 50z" />
    <glyph glyph-name="dotaccent" unicode="&#x2d9;" 
d="M92 536q12 0 33 -3v-66q-21 -3 -32 -3q-12 0 -33 3v66q21 3 32 3z" />
    <glyph glyph-name="ring" unicode="&#x2da;" horiz-adv-x="285" 
d="M142 536q35 0 59 -24.5t24 -59.5q0 -33 -24.5 -58.5t-58.5 -25.5t-58 25t-24 59q0 35 24 59.5t58 24.5zM142 416q17 0 27 10t10 26q0 13 -10 23.5t-27 10.5q-14 0 -25 -11t-11 -23q0 -15 11 -25.5t25 -10.5z" />
    <glyph glyph-name="ogonek" unicode="&#x2db;" horiz-adv-x="222" 
d="M122 -195q-14 0 -38 3l-24 136q10 3 22 3q16 0 27 -3l53 -136q-26 -3 -40 -3z" />
    <glyph glyph-name="tilde" unicode="&#x2dc;" horiz-adv-x="392" 
d="M60 495q48 41 91 41q21 0 49.5 -13.5t40.5 -13.5q29 0 60 25q14 -13 19 -20q3 -3 12 -22q-48 -41 -92 -41q-24 0 -52 13.5t-37 13.5q-29 0 -60 -25q-14 13 -19 20q-10 12 -12 22z" />
    <glyph glyph-name="hungarumlaut" unicode="&#x2dd;" horiz-adv-x="301" 
d="M112 536q12 0 33 -3l-44 -113q-9 -3 -23 -3q-9 0 -18 3l20 113q21 3 32 3zM208 536q12 0 33 -3l-44 -113q-9 -3 -23 -3q-9 0 -18 3l20 113q21 3 32 3z" />
    <glyph glyph-name="pi" unicode="&#x3c0;" horiz-adv-x="572" 
d="M509 344h-77v-341q-21 -3 -32 -3q-12 0 -33 3v341h-162v-341q-21 -3 -32 -3q-12 0 -33 3v341h-77q-3 21 -3 32q0 12 3 33h446q3 -21 3 -33q0 -11 -3 -32z" />
    <glyph glyph-name="nptp3.001march2007p" unicode="&#xe3b;" horiz-adv-x="0" 
 />
    <glyph glyph-name="nptp3.001march2007u" unicode="&#xe3c;" horiz-adv-x="0" 
 />
    <glyph glyph-name="nptp3.001march2007c" unicode="&#xe3d;" horiz-adv-x="0" 
 />
    <glyph glyph-name="nptp3.001march2007r" unicode="&#xe3e;" horiz-adv-x="0" 
 />
    <glyph glyph-name="bahtthai" unicode="&#xe3f;" horiz-adv-x="488" 
d="M428 359q0 -75 -29 -109q29 -32 29 -108q0 -41 -9 -69t-21 -42t-36.5 -21.5t-42 -8.5t-52.5 -1h-7v-58q-21 -3 -33 -3q-11 0 -32 3v58h-135v500h135v58q21 3 32 3q12 0 33 -3v-58h7q25 0 37.5 -0.5t33 -3t31 -7.5t24 -15t20 -25t11 -37.5t4.5 -52.5zM125 442v-164h70v164
h-70zM125 58h70v162h-70v-162zM266 58q104 0 104 84q0 27 -9 44t-27 23.5t-32 8.5t-36 2h-6v-162h6zM266 278q17 0 28.5 1t27 5.5t25 13t16.5 24t7 37.5q0 35 -18 55t-38 24t-48 4h-6v-164h6z" />
    <glyph glyph-name="ZWSP" unicode="&#x200b;" horiz-adv-x="0" 
 />
    <glyph glyph-name="endash" unicode="&#x2013;" horiz-adv-x="521" 
d="M63 225h395q3 -21 3 -30q0 -7 -3 -28h-395q-3 21 -3 27q0 10 3 31z" />
    <glyph glyph-name="emdash" unicode="&#x2014;" horiz-adv-x="618" 
d="M63 225h492q3 -21 3 -30q0 -7 -3 -28h-492q-3 21 -3 27q0 10 3 31z" />
    <glyph glyph-name="quoteleft" unicode="&#x2018;" horiz-adv-x="205" 
d="M93 417q-12 0 -33 3l44 113q9 3 23 3q9 0 18 -3l-20 -113q-21 -3 -32 -3z" />
    <glyph glyph-name="quoteright" unicode="&#x2019;" horiz-adv-x="205" 
d="M112 536q12 0 33 -3l-44 -113q-9 -3 -23 -3q-9 0 -18 3l20 113q21 3 32 3z" />
    <glyph glyph-name="quotesinglbase" unicode="&#x201a;" horiz-adv-x="205" 
d="M112 56q12 0 33 -3l-44 -113q-9 -3 -23 -3q-9 0 -18 3l20 113q21 3 32 3z" />
    <glyph glyph-name="quotedblleft" unicode="&#x201c;" horiz-adv-x="301" 
d="M93 417q-12 0 -33 3l44 113q9 3 23 3q9 0 18 -3l-20 -113q-21 -3 -32 -3zM189 417q-12 0 -33 3l44 113q9 3 23 3q9 0 18 -3l-20 -113q-21 -3 -32 -3z" />
    <glyph glyph-name="quotedblright" unicode="&#x201d;" horiz-adv-x="301" 
d="M112 536q12 0 33 -3l-44 -113q-9 -3 -23 -3q-9 0 -18 3l20 113q21 3 32 3zM208 536q12 0 33 -3l-44 -113q-9 -3 -23 -3q-9 0 -18 3l20 113q21 3 32 3z" />
    <glyph glyph-name="quotedblbase" unicode="&#x201e;" horiz-adv-x="301" 
d="M112 56q12 0 33 -3l-44 -113q-9 -3 -23 -3q-9 0 -18 3l20 113q21 3 32 3zM208 56q12 0 33 -3l-44 -113q-9 -3 -23 -3q-9 0 -18 3l20 113q21 3 32 3z" />
    <glyph glyph-name="dagger" unicode="&#x2020;" horiz-adv-x="423" 
d="M360 333h-116v-510q-21 -3 -32 -3q-12 0 -33 3v510h-116q-3 21 -3 28q0 9 3 30h116v127q21 3 32 3q12 0 33 -3v-127h116q3 -21 3 -30q0 -7 -3 -28z" />
    <glyph glyph-name="daggerdbl" unicode="&#x2021;" horiz-adv-x="423" 
d="M244 0v-177q-21 -3 -32 -3q-12 0 -33 3v177h-116q-3 21 -3 28q0 9 3 30h116v275h-116q-3 21 -3 28q0 9 3 30h116v127q21 3 32 3q12 0 33 -3v-127h116q3 -21 3 -30q0 -7 -3 -28h-116v-275h116q3 -21 3 -30q0 -7 -3 -28h-116z" />
    <glyph glyph-name="bullet" unicode="&#x2022;" horiz-adv-x="266" 
d="M60 196q0 31 21.5 52t51.5 21t51.5 -21t21.5 -52q0 -30 -21.5 -51t-51.5 -21t-51.5 21t-21.5 51z" />
    <glyph glyph-name="ellipsis" unicode="&#x2026;" horiz-adv-x="445" 
d="M92 84q12 0 33 -3v-78q-21 -3 -32 -3q-12 0 -33 3v78q21 3 32 3zM222 84q12 0 33 -3v-78q-21 -3 -32 -3q-12 0 -33 3v78q21 3 32 3zM352 84q12 0 33 -3v-78q-21 -3 -32 -3q-12 0 -33 3v78q21 3 32 3z" />
    <glyph glyph-name="perthousand" unicode="&#x2030;" horiz-adv-x="812" 
d="M152 3l214 494q9 3 32 3q22 0 32 -6l-214 -488q-10 -6 -32 -6q-23 0 -32 3zM153 266q-93 0 -93 74v86q0 35 27.5 54.5t65.5 19.5t65.5 -19.5t27.5 -54.5v-86q0 -74 -93 -74zM153 456q-43 0 -43 -30v-86q0 -15 8.5 -22t34.5 -7t34.5 7t8.5 22v86q0 30 -43 30zM428 0
q-93 0 -93 74v86q0 35 27.5 54.5t65.5 19.5t65.5 -19.5t27.5 -54.5v-86q0 -74 -93 -74zM428 190q-43 0 -43 -30v-86q0 -15 8.5 -22t34.5 -7t34.5 7t8.5 22v86q0 30 -43 30zM659 0q-93 0 -93 74v86q0 35 27.5 54.5t65.5 19.5t65.5 -19.5t27.5 -54.5v-86q0 -74 -93 -74z
M659 190q-43 0 -43 -30v-86q0 -15 8.5 -22t34.5 -7t34.5 7t8.5 22v86q0 30 -43 30z" />
    <glyph glyph-name="guilsinglleft" unicode="&#x2039;" horiz-adv-x="435" 
d="M60 184q0 33 8 55l301 124q6 -11 6 -32q0 -23 -3 -32l-256 -109h-10v-11h10l256 -109q3 -9 3 -32q0 -22 -6 -32l-301 124q-8 22 -8 54z" />
    <glyph glyph-name="guilsinglright" unicode="&#x203a;" horiz-adv-x="435" 
d="M375 184q0 -32 -8 -54l-301 -124q-6 11 -6 32q0 23 3 32l256 109h10v11h-10l-256 109q-3 9 -3 32q0 21 6 32l301 -124q8 -22 8 -55z" />
    <glyph glyph-name="fraction" unicode="&#x2044;" horiz-adv-x="352" 
d="M60 3l168 552q9 3 32 3q22 0 32 -6l-168 -546q-10 -6 -32 -6q-23 0 -32 3z" />
    <glyph glyph-name="Euro" unicode="&#x20ac;" horiz-adv-x="575" 
d="M324 143h-119q11 -43 51 -66.5t91 -23.5q98 0 153 17q15 -26 15 -55q-61 -20 -166 -20q-191 0 -210 148h-76q-3 21 -3 27q0 10 3 31h73v88h-73q-3 21 -3 27q0 10 3 31h74q15 158 212 158q105 0 166 -20q0 -29 -15 -55q-55 17 -153 17q-54 0 -95 -26t-49 -74h121
q3 -21 3 -30q0 -7 -3 -28h-123v-88h123q3 -21 3 -30q0 -7 -3 -28z" />
    <glyph glyph-name="trademark" unicode="&#x2122;" horiz-adv-x="686" 
d="M286 482q0 -10 -2 -28h-85v-259q-16 -2 -25 -2q-8 0 -26 2v259h-86q-2 18 -2 27q0 1 2 19h222q0 -3 0.5 -6t1 -5t0.5 -4v-3zM467 247l63 248q13 5 46 5q36 0 50 -5v-299q-4 -3 -24 -3t-26 2v277h-8v-6l-73 -271q-6 -2 -27 -2q-22 0 -28 2l-74 271v6h-8v-277q-6 -2 -26 -2
t-24 3v299q13 5 50 5q33 0 46 -5z" />
    <glyph glyph-name="Omega" unicode="&#x2126;" horiz-adv-x="554" 
d="M491 0h-155v53q27 2 58 44.5t31 96.5v133q0 57 -43 88.5t-103 31.5h-4q-60 0 -103 -31.5t-43 -88.5v-133q0 -54 31 -96.5t58 -44.5v-53h-155q-3 21 -3 28q0 9 3 30h50q-49 54 -49 137v116q0 194 213 194t213 -194v-116q0 -83 -49 -137h50q3 -21 3 -30q0 -7 -3 -28z" />
    <glyph glyph-name="partialdiff" unicode="&#x2202;" horiz-adv-x="442" 
d="M212 505q83 0 126.5 -33t43.5 -113v-356q-21 -3 -33 -3q-11 0 -32 3v28q-34 -36 -96 -36q-46 0 -77 9t-47.5 21t-25 36t-10 42.5t-1.5 52.5v51q0 25 0.5 37.5t3 33t8.5 31t16.5 24t26.5 20t40.5 11t56.5 4.5q72 0 96 -36h9v28q0 45 -31.5 66t-81.5 21q-48 0 -95 -15
q-15 26 -15 55q57 18 118 18zM317 157v66q0 37 -24.5 62t-82.5 25q-30 0 -49 -9t-26 -27.5t-8.5 -31.5t-1.5 -36v-49q0 -23 2 -36t10 -31.5t29 -27.5t55 -9t55 9t29 27.5t10 31.5t2 36z" />
    <glyph glyph-name="Delta" unicode="&#x2206;" horiz-adv-x="560" 
d="M60 0l178 497q17 4 42 4q23 0 43 -4l177 -497h-440zM280 436l-132 -374h263z" />
    <glyph glyph-name="product" unicode="&#x220f;" horiz-adv-x="572" 
d="M509 435h-77v-612q-21 -3 -32 -3q-12 0 -33 3v612h-162v-612q-21 -3 -32 -3q-12 0 -33 3v612h-77q-3 21 -3 32q0 12 3 33h446q3 -21 3 -33q0 -11 -3 -32z" />
    <glyph glyph-name="summation" unicode="&#x2211;" horiz-adv-x="462" 
d="M178 170l-115 277q-3 15 -3 30q0 11 3 23h336q3 -21 3 -30q0 -7 -3 -28h-261l113 -272l-113 -272h261q3 -21 3 -28q0 -9 -3 -30h-336q-3 12 -3 23q0 15 3 30z" />
    <glyph glyph-name="minus" unicode="&#x2212;" horiz-adv-x="488" 
d="M63 225h362q3 -21 3 -30q0 -7 -3 -28h-362q-3 21 -3 27q0 10 3 31z" />
    <glyph glyph-name="radical" unicode="&#x221a;" horiz-adv-x="634" 
d="M248 51l160 470h163q3 -19 3 -30q0 -17 -5 -28h-111l-158 -455q-22 -8 -52 -8t-52 8l-136 386q10 6 32 6q27 0 36 -3z" />
    <glyph glyph-name="infinity" unicode="&#x221e;" horiz-adv-x="874" 
d="M438 226q-101 -116 -205 -116q-93 0 -133 33.5t-40 124.5v13q0 91 40 124.5t133 33.5q109 0 204 -115q95 115 204 115q93 0 133 -33.5t40 -124.5v-13q0 -91 -40 -124.5t-133 -33.5q-106 0 -203 116zM233 378q-58 0 -83 -20t-25 -77v-13q0 -57 25 -77t83 -20q73 0 164 102
q-94 105 -164 105zM641 378q-70 0 -164 -105q91 -102 164 -102q58 0 83 20t25 77v13q0 57 -25 77t-83 20z" />
    <glyph glyph-name="integral" unicode="&#x222b;" horiz-adv-x="485" 
d="M210 -44v425q0 80 28.5 110t89.5 30q56 0 97 -13q0 -29 -15 -55q-36 10 -74 10q-37 0 -49 -16.5t-12 -65.5v-425q0 -80 -28.5 -110t-89.5 -30q-56 0 -97 13q0 29 15 55q36 -10 74 -10q37 0 49 16.5t12 65.5z" />
    <glyph glyph-name="approxequal" unicode="&#x2248;" horiz-adv-x="483" 
d="M60 256q48 41 91 41q33 0 91 -29.5t90 -29.5q29 0 60 25q14 -13 19 -20q3 -3 12 -22q-48 -41 -92 -41q-29 0 -87 29.5t-93 29.5q-29 0 -60 -25q-14 13 -19 20q-10 12 -12 22zM60 136q48 41 91 41q33 0 91 -29.5t90 -29.5q29 0 60 25q14 -13 19 -20q3 -3 12 -22
q-48 -41 -92 -41q-29 0 -87 29.5t-93 29.5q-29 0 -60 -25q-14 13 -19 20q-10 12 -12 22z" />
    <glyph glyph-name="notequal" unicode="&#x2260;" horiz-adv-x="387" 
d="M208 130h116q3 -21 3 -30q0 -7 -3 -28h-134l-22 -73q-10 -6 -32 -6q-23 0 -32 3l23 76h-64q-3 21 -3 27q0 10 3 31h81l27 88h-108q-3 21 -3 27q0 10 3 31h125l31 101q9 3 32 3q21 0 32 -6l-30 -98h71q3 -21 3 -30q0 -7 -3 -28h-89z" />
    <glyph glyph-name="lessequal" unicode="&#x2264;" horiz-adv-x="435" 
d="M60 262q0 33 8 55l301 124q6 -11 6 -32q0 -23 -3 -32l-256 -109h-10v-11h10l256 -109q3 -9 3 -32q0 -22 -6 -32l-301 124q-8 22 -8 54zM372 0h-309q-3 21 -3 27q0 10 3 31h309q3 -21 3 -30q0 -7 -3 -28z" />
    <glyph glyph-name="greaterequal" unicode="&#x2265;" horiz-adv-x="435" 
d="M375 262q0 -32 -8 -54l-301 -124q-6 10 -6 32q0 23 3 32l256 109h10v11h-10l-256 109q-3 9 -3 32q0 21 6 32l301 -124q8 -22 8 -55zM372 0h-309q-3 21 -3 28q0 9 3 30h309q3 -21 3 -31q0 -6 -3 -27z" />
    <glyph glyph-name="lozenge" unicode="&#x25ca;" horiz-adv-x="393" 
d="M127 250l70 -163l69 163l-69 164zM60 251l101 242q28 7 36 7t36 -7l100 -242l-100 -243q-19 -8 -36 -8t-36 8z" />
    <glyph glyph-name="uni25CC" unicode="&#x25cc;" horiz-adv-x="512" 
 />
    <glyph glyph-name="Superstore" horiz-adv-x="625" 
d="M311 505q106 0 180 -74t74 -180q0 -104 -74 -177.5t-180 -73.5q-103 0 -177 74t-74 177q0 106 73.5 180t177.5 74zM418 90q32 0 32 27q0 30 -24 30v133q0 43 -32 71q6 2 19 2t19 -2h11v65q-73 -9 -115 -32q-12 2 -37 2q-49 0 -88 -14v-63h6q50 16 76 16q74 0 74 -43
l-82 -8q-46 -4 -74 -23t-28 -69q0 -42 28.5 -67t73.5 -25q30 0 43 3v54l-6 4q-9 -4 -23 -4q-18 0 -31.5 10t-13.5 31q0 16 18 22.5t95 18.5v-71q0 -37 10.5 -52.5t39.5 -15.5h9z" />
    </font>
</defs>
</svg>
